<?xml version="1.0" encoding="UTF-8"?>
<svg id="Layer_1" data-name="Layer 1" xmlns="http://www.w3.org/2000/svg" viewBox="0 0 440 10000">
  <defs>
    <style>
      .cls-1 {
        fill: #ff5900;
        opacity: .5;
      }
    </style>
  </defs>
  <path class="cls-1" d="M307.5,9969.79c-3.92-1.83-7.98-3.71-11.89-5.6-18.84-9.1-41.75-22.24-51.82-43.23-2.31-4.82-4.85-12.1-3.81-19.44,1.73-12.21,11.91-21.15,23.7-31.5,7.42-6.52,15.09-13.25,21.16-21.46,5.8-7.83,9.17-15.91,10.02-24.01,1.27-12.12-3.29-23.93-12.84-33.26-12.08-11.79-30.67-18.02-47.36-15.86-25.12,3.25-45.61,19.48-63.68,33.8l-2.96,2.34c-17.85,14.1-37.12,27-57.21,25.87-9.2-.51-19.69-5.4-21.95-13.75-1.05-3.88-.4-8.77.37-13.05,4.52-25.04,17.43-49.45,36.35-68.71,18.92-19.26,43.09-32.6,68.05-37.57,2.69-.54,5.45-1.04,8.37-1.57,22.38-4.08,50.24-9.16,59.37-33.88,3.92-10.61,2.68-22.38-3.49-33.12-7.63-13.29-21.67-23.19-36.62-25.82-23.49-4.15-46.17,5.2-67.19,15.91-35.58,18.13-58.64,20.62-70.49,7.62-13.11-14.38-3.87-39.62-.72-47.01,18.9-44.39,62.04-77.04,109.9-83.18,1.16-.15,2.34-.29,3.52-.43,10.83-1.29,24.3-2.9,33.84-12.51,8.66-8.73,11.5-20.17,8.44-34-2.31-10.45-7.57-20.89-12.65-30.99-2.28-4.53-4.44-8.82-6.22-12.88-9.36-21.41-5.46-47.35,9.48-63.08,15.14-15.94,42.31-19.45,59.33-7.66,2.92,2.03,5.95,4.53,9.16,7.17,11.68,9.64,26.22,21.63,43.68,14.49,8.18-3.34,13.87-9.95,16.04-18.6,4.05-16.16-4.64-36.24-14.42-48.05-21.01-25.37-47.4-47.11-76.32-62.87-3.5-1.91-7.08-3.76-10.55-5.55-14.56-7.53-28.32-14.65-37.5-26.05-3.73-4.63-8.48-12.23-12.91-20.73-3.72-8.11-7.87-18.01-10.68-25.17-2.03-6.6-3.06-12.53-2.38-16.75.18-1.15.53-2.07.85-2.28l-1.06-1.63c3.17-10.21,6.48-20.72,12.48-28.82,6.25-8.42,15.55-14.58,25.41-21.09,3.5-2.31,7.11-4.7,10.62-7.22,12.33-8.86,23.37-19.37,32.82-31.25,14.59-18.34,25.24-45.5,11.36-66.71-10.36-15.83-32.17-22.67-53.03-16.64-17.6,5.09-31.37,17.44-42.51,28.86-2,2.05-3.98,4.13-5.97,6.21-8.67,9.1-16.86,17.7-26.63,23.79-17.9,11.16-41.94,12.88-61.25,4.38-6.21-2.73-10.51-5.85-13.12-9.52-6.41-9.01-3.12-22.65,2.65-31.51,6.03-9.25,14.99-16.58,24.48-24.34,2.04-1.67,4.09-3.34,6.1-5.03,6.8-5.71,13.47-11.81,19.92-17.7,20.5-18.74,39.87-36.44,64.21-43.84,2.96-.9,6.01-1.65,9.25-2.45,8.09-1.99,16.45-4.05,24.36-8.66,17.31-10.1,27.1-31.28,23.27-50.36-4.08-20.32-23.12-35.84-43.34-35.37-12.02.29-22.51,5.69-30.93,10.02l-1.62.84c-18.18,9.37-36.99,19.05-56.53,22.29-15.36,2.54-29.23.41-39.05-6.02-12.45-8.15-13.08-26.47-12.77-33.98.65-16.02,14.92-30.05,28.71-43.61,3.79-3.72,7.7-7.57,11.29-11.43,12.3-13.2,32.32-30.16,57.83-35.97,3.46-.79,7.09-1.43,10.93-2.1,15.33-2.69,32.7-5.75,43.56-20,9.2-12.08,10.85-29.16,4.91-50.75-1.81-6.58-3.98-13.05-6.08-19.32-4.22-12.62-8.21-24.53-9.35-36.79-1.46-15.67,3.38-34.68,17.47-41.83,13.28-6.75,30.98-1.35,46.52,4.24,13.08,4.7,24.54,9.26,32.48,17.42,2.53,2.6,4.82,5.71,7.25,9.01,3.36,4.56,6.84,9.28,11.5,13.47,10.34,9.31,27.05,13.73,38.99,4.15,8.11-6.51,10.12-16.6,10.92-23.61,1.99-17.33-.78-32.72-7.99-44.53-6.66-10.9-16.81-18.52-26.64-25.38-6.01-4.2-12.31-10.62-18.98-17.42-16.13-16.45-36.2-36.92-59.53-26.08-22.32,10.37-57.53.8-72.46-19.68-10.15-13.93-7.72-29.72,7.02-45.65,3.33-3.6,8.74-6.49,14.46-9.55,4.1-2.19,8.34-4.45,12.22-7.21,6.66-4.74,13.45-7.94,21.32-11.66,1.47-.69,2.95-1.39,4.45-2.11,23.45-11.23,37.24-35.4,47.3-53.04,6.21-10.88,17.77-31.14,10.14-50.57-7.87-20.04-31.7-27.45-51.16-24.42-12.36,1.93-23.34,6.95-33.96,11.81-4.41,2.02-8.57,3.92-12.81,5.6-21.36,8.49-44.92,11.12-68.15,7.6-6.31-.95-11.44-5.07-13.73-11.02-2.28-5.91-1.25-12.36,2.75-17.27,13.96-17.1,36.86-30.13,59.01-42.74,3.86-2.2,7.85-4.46,11.67-6.69,23.13-13.49,44.69-29.7,64.06-48.19,6.98-6.66,12.62-14.82,15.47-22.37,4.31-11.41,2.69-21.88-4.56-29.47-4.69-4.91-10.76-7.15-14.92-8.4-28.49-8.59-57.62.68-85.8,9.64-21.21,6.75-41.23,13.12-58.89,11.21-4.75-.51-8.97-2.88-11.89-6.65-2.95-3.82-4.19-8.56-3.49-13.36,6.98-47.57,41.3-90.13,85.41-105.9,3.86-1.38,7.8-2.59,11.97-3.87,11.74-3.61,23.88-7.34,34.59-15.1,16.9-12.24,26.74-33.18,25.67-54.66-.44-8.77-4.14-17.22-10.43-23.79-8.75-9.13-13.56-22.44-13.19-36.52.35-13.36,5.49-25.67,14.1-33.78,9.63-9.07,23.72-13.34,38.65-11.73,14.93,1.61,27.78,8.79,35.26,19.71.77,1.12,1.53,2.29,2.31,3.48,5.66,8.66,13.4,20.52,27.57,20.52h.05c9.48-.02,18.58-6.18,24.35-16.48,15.04-26.88,2.42-60.79-17.82-80.4-16.12-15.62-36.23-24.97-55.68-34.02-3.92-1.83-7.98-3.71-11.89-5.6-18.83-9.1-41.75-22.24-51.82-43.23-2.31-4.82-4.85-12.1-3.81-19.44,1.73-12.21,11.91-21.15,23.7-31.5,7.42-6.52,15.09-13.25,21.16-21.46,5.8-7.84,9.17-15.91,10.02-24.01,1.27-12.12-3.29-23.93-12.84-33.25-12.08-11.79-30.67-18.02-47.37-15.86-25.12,3.25-45.6,19.48-63.68,33.8l-2.96,2.34c-17.85,14.1-37.14,27-57.21,25.87-9.2-.51-19.69-5.4-21.95-13.75-1.05-3.88-.4-8.77.37-13.05,4.52-25.04,17.43-49.45,36.35-68.71,18.92-19.26,43.09-32.6,68.05-37.57,2.69-.54,5.45-1.04,8.37-1.57,22.39-4.08,50.24-9.16,59.37-33.88,3.92-10.62,2.68-22.38-3.49-33.12-7.63-13.29-21.67-23.19-36.62-25.82-23.48-4.14-46.17,5.2-67.19,15.91-35.58,18.13-58.64,20.62-70.49,7.62-13.11-14.38-3.87-39.62-.72-47.01,18.9-44.39,62.04-77.04,109.9-83.18,1.16-.15,2.34-.29,3.52-.43,10.82-1.29,24.3-2.9,33.84-12.51,8.66-8.73,11.5-20.17,8.44-34-2.31-10.45-7.57-20.89-12.65-30.99-2.28-4.53-4.44-8.82-6.22-12.88-9.36-21.41-5.46-47.34,9.48-63.08,15.14-15.94,42.31-19.45,59.33-7.66,2.92,2.03,5.96,4.53,9.17,7.18,11.68,9.64,26.22,21.63,43.68,14.49,8.18-3.34,13.87-9.95,16.04-18.6,4.05-16.16-4.64-36.24-14.42-48.05-21.01-25.37-47.4-47.11-76.32-62.87-3.5-1.91-7.08-3.76-10.55-5.55-14.56-7.53-28.32-14.65-37.5-26.05-4.88-6.06-14.07-25.05-20.4-45.17-3.71-11.76-5.42-20.47-6.05-26.69.04-2.61.29-5.42.72-6.79,3.21-10.37,6.54-21.08,12.64-29.31,6.25-8.42,15.56-14.58,25.41-21.09,3.5-2.31,7.11-4.7,10.62-7.22,12.33-8.86,23.37-19.37,32.82-31.25,14.59-18.34,25.24-45.5,11.36-66.71-10.36-15.82-32.16-22.67-53.03-16.64-17.6,5.09-31.37,17.44-42.51,28.86-2,2.05-3.98,4.13-5.97,6.21-8.67,9.1-16.86,17.7-26.63,23.79-17.9,11.16-41.94,12.88-61.25,4.38-6.21-2.73-10.51-5.85-13.12-9.52-6.41-9.01-3.12-22.65,2.65-31.51,6.03-9.25,14.99-16.58,24.49-24.35,2.04-1.67,4.08-3.34,6.1-5.03,6.8-5.71,13.47-11.81,19.92-17.71,20.5-18.74,39.87-36.44,64.21-43.84,2.96-.9,6.01-1.65,9.25-2.45,8.09-1.99,16.45-4.05,24.36-8.66,17.31-10.1,27.1-31.28,23.27-50.36-4.02-20.01-22.53-35.38-42.4-35.38-.31,0-.62,0-.93.01-12.02.29-22.51,5.69-30.93,10.02l-1.62.83c-18.18,9.37-36.99,19.05-56.53,22.29-15.36,2.55-29.23.41-39.05-6.02-12.45-8.15-13.08-26.48-12.77-33.98.65-16.02,14.92-30.04,28.71-43.61,3.79-3.72,7.7-7.58,11.29-11.43,12.3-13.2,32.32-30.16,57.83-35.97,3.46-.79,7.09-1.42,10.93-2.1,15.33-2.69,32.7-5.75,43.56-20,9.2-12.08,10.85-29.16,4.91-50.75-1.81-6.58-3.98-13.06-6.08-19.32-4.22-12.62-8.21-24.53-9.35-36.79-1.46-15.67,3.38-34.67,17.47-41.83,13.28-6.75,30.98-1.35,46.52,4.24,13.08,4.7,24.54,9.26,32.48,17.42,2.53,2.6,4.82,5.71,7.25,9.01,3.36,4.56,6.84,9.29,11.5,13.47,10.34,9.31,27.05,13.73,38.99,4.15,8.11-6.51,10.12-16.59,10.92-23.61,1.99-17.33-.78-32.72-7.99-44.53-6.66-10.9-16.81-18.52-26.64-25.38-6.01-4.2-12.31-10.62-18.98-17.42-16.12-16.45-36.2-36.93-59.53-26.08-22.32,10.37-57.53.8-72.46-19.68-10.15-13.93-7.72-29.72,7.02-45.65,3.33-3.6,8.74-6.49,14.46-9.55,4.1-2.19,8.34-4.46,12.22-7.21,6.66-4.74,13.45-7.94,21.32-11.66,1.47-.69,2.95-1.39,4.45-2.11,23.44-11.23,37.23-35.4,47.31-53.04,6.21-10.88,17.77-31.14,10.14-50.58-7.87-20.04-31.7-27.45-51.16-24.42-12.36,1.93-23.34,6.95-33.96,11.81-4.41,2.02-8.57,3.92-12.81,5.6-21.35,8.49-44.92,11.12-68.15,7.6-6.31-.95-11.44-5.07-13.73-11.02-2.28-5.91-1.25-12.36,2.75-17.27,13.96-17.1,36.86-30.14,59.01-42.74,3.86-2.2,7.85-4.46,11.67-6.69,23.14-13.49,44.69-29.7,64.06-48.19,6.98-6.66,12.62-14.82,15.47-22.37,4.31-11.41,2.69-21.88-4.56-29.47-4.69-4.91-10.76-7.15-14.92-8.4-28.49-8.59-57.62.68-85.8,9.64-21.21,6.75-41.23,13.12-58.89,11.21-4.75-.51-8.97-2.88-11.9-6.65-2.95-3.82-4.19-8.56-3.49-13.36,6.98-47.57,41.3-90.13,85.41-105.9,3.86-1.38,7.8-2.59,11.96-3.87,11.74-3.61,23.88-7.34,34.59-15.1,16.9-12.24,26.74-33.18,25.67-54.66-.44-8.77-4.14-17.22-10.43-23.79-8.75-9.13-13.56-22.44-13.19-36.52.35-13.36,5.49-25.67,14.1-33.78,9.63-9.06,23.72-13.34,38.65-11.73,14.93,1.61,27.78,8.79,35.26,19.71.77,1.12,1.53,2.29,2.31,3.48,5.66,8.66,13.4,20.52,27.57,20.52h.05c9.48-.02,18.58-6.18,24.35-16.48,15.04-26.88,2.42-60.79-17.82-80.4-16.13-15.62-36.24-24.97-55.68-34.02-3.92-1.83-7.98-3.71-11.89-5.6-18.83-9.1-41.75-22.24-51.82-43.23-2.31-4.82-4.85-12.1-3.81-19.44,1.73-12.21,11.91-21.15,23.7-31.5,7.42-6.52,15.09-13.25,21.16-21.46,5.8-7.84,9.17-15.91,10.02-24.01,1.27-12.12-3.29-23.93-12.84-33.26-12.08-11.79-30.67-18.02-47.37-15.86-25.12,3.25-45.6,19.48-63.68,33.8l-2.96,2.34c-17.85,14.1-37.13,26.98-57.21,25.87-9.2-.51-19.69-5.4-21.95-13.75-1.05-3.88-.4-8.77.37-13.05,4.52-25.04,17.43-49.45,36.35-68.71,18.92-19.26,43.09-32.6,68.05-37.57,2.69-.54,5.45-1.04,8.37-1.57,22.39-4.08,50.25-9.16,59.37-33.88,3.92-10.61,2.68-22.38-3.49-33.12-7.63-13.29-21.67-23.19-36.62-25.82-23.48-4.14-46.17,5.2-67.19,15.92-35.58,18.13-58.64,20.62-70.49,7.62-13.11-14.38-3.87-39.62-.72-47.01,18.9-44.39,62.04-77.04,109.89-83.18,1.16-.15,2.33-.29,3.52-.43,10.83-1.29,24.3-2.9,33.84-12.51,8.66-8.73,11.5-20.16,8.44-34-2.31-10.45-7.57-20.89-12.65-30.99-2.28-4.53-4.44-8.82-6.22-12.88-9.36-21.41-5.46-47.35,9.48-63.08,15.14-15.94,42.31-19.45,59.33-7.66,2.92,2.03,5.95,4.53,9.16,7.17,11.68,9.64,26.21,21.63,43.68,14.49,8.18-3.34,13.87-9.95,16.04-18.6,4.05-16.16-4.64-36.24-14.42-48.05-21.01-25.37-47.4-47.11-76.32-62.87-3.5-1.91-7.08-3.76-10.55-5.55-14.56-7.53-28.32-14.65-37.49-26.05-1.9-2.36-4.06-4.91-6.36-7.6-5.2-6.12-11.1-13.06-15.34-19.55-5.52-8.46-5.37-11.85-5.28-12.44.02-.16.06-.4.89-.93l-2.14-3.3c-.43-2.03-.89-4.3-1.39-6.88-.32-1.67-.58-2.96-.73-3.66-.57-2.49-.33-9.22.41-11.61,3.21-10.37,6.53-21.08,12.64-29.31,6.25-8.42,15.55-14.58,25.41-21.09,3.5-2.31,7.11-4.7,10.62-7.22,12.33-8.86,23.37-19.37,32.82-31.25,14.59-18.34,25.24-45.5,11.36-66.71-10.36-15.83-32.17-22.67-53.03-16.64-17.6,5.09-31.37,17.44-42.51,28.86-2,2.05-3.98,4.13-5.96,6.21-8.67,9.1-16.86,17.7-26.64,23.8-17.9,11.16-41.94,12.88-61.25,4.38-6.21-2.73-10.51-5.85-13.12-9.52-6.41-9.01-3.12-22.65,2.65-31.51,6.03-9.25,14.99-16.58,24.49-24.35,2.04-1.67,4.08-3.34,6.1-5.03,6.8-5.71,13.47-11.81,19.92-17.7,20.5-18.74,39.87-36.44,64.21-43.84,2.95-.9,6.01-1.65,9.25-2.45,8.09-1.99,16.45-4.05,24.36-8.66,17.31-10.1,27.1-31.28,23.27-50.36-4.08-20.32-23.12-35.85-43.33-35.37-12.02.29-22.51,5.69-30.93,10.02l-1.62.83c-18.18,9.37-36.99,19.05-56.53,22.29-15.36,2.55-29.23.41-39.05-6.02-12.45-8.15-13.08-26.48-12.77-33.98.65-16.02,14.92-30.05,28.71-43.61,3.79-3.72,7.7-7.57,11.29-11.43,12.3-13.2,32.32-30.16,57.83-35.97,3.46-.79,7.09-1.43,10.93-2.1,15.33-2.69,32.7-5.75,43.55-20,9.2-12.09,10.85-29.16,4.91-50.75-1.81-6.58-3.98-13.06-6.08-19.32-4.22-12.62-8.21-24.53-9.35-36.79-1.46-15.67,3.38-34.68,17.47-41.83,13.28-6.75,30.98-1.35,46.52,4.24,13.08,4.7,24.54,9.26,32.48,17.42,2.53,2.6,4.82,5.71,7.25,9.01,3.36,4.56,6.84,9.28,11.49,13.47,10.34,9.31,27.05,13.73,38.99,4.15,8.11-6.51,10.12-16.59,10.92-23.61,1.99-17.33-.78-32.73-7.99-44.53-6.66-10.9-16.81-18.52-26.64-25.38-6.01-4.2-12.31-10.62-18.98-17.42-16.12-16.45-36.19-36.92-59.53-26.09-22.32,10.37-57.53.8-72.46-19.68-10.15-13.93-7.72-29.72,7.02-45.65,3.33-3.6,8.74-6.49,14.46-9.55,4.1-2.19,8.34-4.45,12.22-7.21,6.66-4.74,13.45-7.94,21.32-11.66,1.47-.69,2.95-1.39,4.45-2.11,23.44-11.23,37.23-35.4,47.3-53.04,6.21-10.88,17.77-31.14,10.14-50.58-7.87-20.04-31.7-27.46-51.16-24.42-12.36,1.93-23.34,6.95-33.96,11.81-4.41,2.02-8.57,3.92-12.81,5.6-21.36,8.49-44.92,11.12-68.15,7.6-6.31-.95-11.44-5.07-13.73-11.02-2.28-5.91-1.25-12.36,2.75-17.27,13.96-17.1,36.86-30.13,59.01-42.74,3.86-2.2,7.85-4.47,11.67-6.69,23.14-13.49,44.69-29.7,64.06-48.19,6.98-6.66,12.62-14.82,15.47-22.37,4.31-11.41,2.69-21.88-4.56-29.47-4.69-4.91-10.76-7.15-14.92-8.4-28.48-8.59-57.62.68-85.8,9.64-21.21,6.75-41.23,13.12-58.89,11.21-4.75-.51-8.97-2.88-11.89-6.65-2.95-3.82-4.19-8.56-3.49-13.36,6.98-47.57,41.3-90.13,85.41-105.9,3.86-1.38,7.79-2.59,11.97-3.87,11.74-3.61,23.88-7.34,34.59-15.1,16.9-12.24,26.74-33.18,25.67-54.66-.44-8.77-4.14-17.22-10.43-23.79-8.75-9.13-13.56-22.44-13.19-36.52.35-13.36,5.49-25.67,14.1-33.78,9.63-9.06,23.72-13.34,38.65-11.73,14.93,1.61,27.78,8.79,35.25,19.71.77,1.12,1.53,2.29,2.31,3.48,5.66,8.66,13.4,20.52,27.58,20.52h.04c9.48-.02,18.58-6.18,24.35-16.48,15.05-26.88,2.42-60.79-17.82-80.4-16.13-15.62-36.24-24.97-55.68-34.02-3.92-1.83-7.98-3.71-11.89-5.6-18.84-9.1-41.75-22.25-51.82-43.23-2.31-4.82-4.85-12.1-3.81-19.44,1.73-12.21,11.91-21.15,23.7-31.5,7.42-6.52,15.09-13.25,21.16-21.45,5.8-7.83,9.17-15.91,10.02-24.01,1.27-12.12-3.29-23.93-12.84-33.26-12.08-11.79-30.67-18.02-47.37-15.86-25.12,3.25-45.6,19.48-63.68,33.8l-2.96,2.35c-17.85,14.1-37.13,26.97-57.2,25.86-9.2-.51-19.69-5.4-21.95-13.75-1.05-3.88-.4-8.77.37-13.05,4.52-25.04,17.43-49.45,36.35-68.71,18.92-19.26,43.09-32.6,68.05-37.57,2.69-.54,5.45-1.04,8.37-1.57,22.38-4.08,50.24-9.16,59.37-33.88,3.92-10.61,2.68-22.38-3.49-33.12-7.63-13.29-21.67-23.19-36.62-25.82-23.48-4.14-46.17,5.2-67.19,15.91-35.58,18.13-58.64,20.62-70.49,7.62-13.11-14.38-3.87-39.62-.72-47.01,18.9-44.39,62.04-77.04,109.9-83.18,1.16-.15,2.33-.29,3.52-.43,10.83-1.29,24.3-2.9,33.84-12.51,8.66-8.73,11.5-20.16,8.44-34-2.31-10.45-7.57-20.89-12.65-30.99-2.28-4.53-4.44-8.82-6.22-12.88-9.36-21.41-5.46-47.35,9.48-63.08,15.14-15.94,42.31-19.45,59.33-7.66,2.92,2.02,5.95,4.53,9.16,7.17,11.68,9.64,26.21,21.63,43.68,14.49,8.18-3.34,13.87-9.95,16.04-18.6,4.05-16.16-4.64-36.24-14.42-48.05-21.01-25.37-47.4-47.11-76.32-62.87-3.5-1.91-7.08-3.76-10.55-5.55-14.56-7.53-28.32-14.65-37.5-26.05-18.06-22.44-20.97-32.69-20.22-37.34.17-1.07.57-1.92,2.05-2.88l-2.67-4.12c-.27-1.57-.51-3.42-.65-4.55-.25-1.97-.47-3.67-.8-5.14-.57-2.49-.33-9.22.41-11.61,3.21-10.37,6.54-21.09,12.64-29.31,6.25-8.42,15.55-14.58,25.41-21.09,3.5-2.31,7.11-4.7,10.62-7.22,12.33-8.86,23.37-19.37,32.82-31.25,14.59-18.34,25.24-45.5,11.36-66.71-10.36-15.82-32.16-22.67-53.03-16.64-17.6,5.09-31.37,17.44-42.51,28.86-2,2.05-3.98,4.13-5.96,6.21-8.67,9.1-16.86,17.7-26.64,23.8-17.9,11.16-41.94,12.88-61.25,4.38-6.21-2.73-10.51-5.85-13.12-9.52-6.41-9.01-3.12-22.65,2.65-31.51,6.03-9.25,14.99-16.58,24.49-24.35,2.04-1.67,4.08-3.34,6.1-5.03,6.8-5.71,13.47-11.81,19.92-17.7,20.5-18.74,39.87-36.44,64.21-43.84,2.96-.9,6.01-1.65,9.25-2.45,8.09-1.99,16.45-4.05,24.36-8.66,17.31-10.1,27.1-31.28,23.27-50.36-4.08-20.32-23.1-35.86-43.34-35.37-12.02.29-22.51,5.69-30.93,10.02l-1.62.83c-18.18,9.37-36.99,19.05-56.53,22.29-15.36,2.54-29.23.41-39.05-6.02-12.45-8.15-13.08-26.48-12.77-33.98.65-16.02,14.92-30.05,28.72-43.61,3.79-3.72,7.7-7.57,11.29-11.43,12.3-13.2,32.32-30.16,57.83-35.97,3.46-.79,7.09-1.43,10.93-2.1,15.33-2.69,32.7-5.75,43.55-20,9.2-12.08,10.85-29.16,4.91-50.75-1.81-6.58-3.98-13.05-6.07-19.32-4.22-12.62-8.21-24.53-9.35-36.79-1.46-15.67,3.38-34.68,17.47-41.83,13.28-6.75,30.98-1.35,46.52,4.24,13.08,4.7,24.54,9.26,32.48,17.42,2.53,2.6,4.82,5.71,7.25,9.01,3.36,4.56,6.84,9.28,11.5,13.47,10.34,9.31,27.06,13.73,38.99,4.15,8.11-6.51,10.12-16.59,10.92-23.61,1.99-17.32-.78-32.72-7.99-44.53-6.66-10.91-16.81-18.52-26.64-25.38-6.01-4.2-12.31-10.62-18.98-17.42-16.12-16.45-36.19-36.92-59.53-26.08-22.32,10.37-57.53.8-72.46-19.68-10.15-13.93-7.72-29.72,7.02-45.65,3.33-3.6,8.74-6.49,14.46-9.55,4.1-2.19,8.34-4.45,12.22-7.21,6.66-4.74,13.45-7.94,21.31-11.65,1.47-.69,2.95-1.39,4.46-2.11,23.44-11.23,37.24-35.39,47.31-53.04,6.21-10.88,17.77-31.14,10.14-50.58-7.87-20.04-31.7-27.46-51.16-24.42-12.36,1.93-23.34,6.95-33.96,11.81-4.41,2.02-8.57,3.92-12.81,5.6-21.36,8.49-44.92,11.12-68.15,7.6-6.31-.95-11.44-5.07-13.73-11.02-2.28-5.91-1.25-12.36,2.75-17.27,13.96-17.1,36.86-30.13,59.01-42.74,3.86-2.2,7.85-4.47,11.67-6.69,23.13-13.49,44.69-29.7,64.06-48.19,6.98-6.66,12.62-14.81,15.48-22.37,4.31-11.41,2.69-21.88-4.56-29.47-4.69-4.91-10.76-7.15-14.92-8.4-28.48-8.59-57.62.68-85.8,9.64-21.21,6.75-41.23,13.12-58.89,11.21-4.75-.51-8.97-2.88-11.9-6.65-2.95-3.82-4.19-8.56-3.49-13.36,6.98-47.57,41.3-90.13,85.41-105.9,3.86-1.38,7.8-2.59,11.97-3.87,11.74-3.61,23.88-7.34,34.59-15.1,16.9-12.24,26.74-33.18,25.67-54.66-.44-8.77-4.14-17.22-10.43-23.79-8.75-9.13-13.56-22.44-13.19-36.52.35-13.36,5.49-25.67,14.1-33.78,9.63-9.06,23.72-13.34,38.65-11.73,14.93,1.61,27.78,8.79,35.25,19.71.77,1.12,1.53,2.29,2.31,3.48,5.66,8.66,13.4,20.52,27.58,20.52h.04c9.48-.02,18.58-6.18,24.35-16.48,15.04-26.88,2.42-60.79-17.82-80.4-16.13-15.62-36.24-24.97-55.68-34.02-3.92-1.83-7.98-3.71-11.89-5.6-18.83-9.1-41.75-22.24-51.82-43.23-2.31-4.82-4.85-12.11-3.81-19.45,1.73-12.21,11.91-21.15,23.7-31.51,7.42-6.52,15.09-13.25,21.16-21.45,5.8-7.83,9.17-15.91,10.02-24.01,1.27-12.12-3.29-23.93-12.84-33.26-12.08-11.79-30.68-18.02-47.37-15.86-25.12,3.25-45.61,19.48-63.68,33.8l-2.96,2.34c-17.85,14.1-37.14,26.98-57.21,25.86-9.2-.51-19.69-5.4-21.95-13.75-1.05-3.88-.4-8.77.37-13.05,4.52-25.05,17.43-49.45,36.35-68.71,18.92-19.26,43.09-32.6,68.05-37.57,2.69-.54,5.45-1.04,8.37-1.57,22.38-4.08,50.24-9.16,59.37-33.88,3.92-10.61,2.68-22.38-3.49-33.12-7.63-13.29-21.67-23.19-36.62-25.82-23.49-4.14-46.17,5.2-67.19,15.91-35.58,18.13-58.64,20.62-70.49,7.62-13.11-14.38-3.87-39.62-.72-47.01,18.9-44.39,62.04-77.04,109.9-83.18,1.16-.15,2.33-.29,3.52-.43,10.83-1.29,24.3-2.9,33.84-12.51,8.66-8.73,11.5-20.16,8.44-34-2.31-10.45-7.57-20.89-12.65-30.99-2.28-4.53-4.44-8.82-6.22-12.88-9.36-21.41-5.46-47.35,9.48-63.08,15.14-15.94,42.31-19.45,59.33-7.66,2.92,2.03,5.96,4.53,9.17,7.18,11.68,9.64,26.21,21.63,43.67,14.49,8.18-3.34,13.87-9.95,16.04-18.6,4.05-16.16-4.64-36.24-14.42-48.05-21.01-25.37-47.4-47.11-76.32-62.87-3.5-1.91-7.08-3.76-10.55-5.55-14.56-7.53-28.32-14.65-37.5-26.05-6-7.45-8.94-18.13-7.48-27.2.65-4.03,2.51-9.54,7.71-12.91l-10.88-16.78c-8.87,5.75-14.76,15.17-16.58,26.53-2.34,14.63,2.12,31.07,11.65,42.91,11.82,14.68,28.12,23.12,43.89,31.27,3.37,1.74,6.85,3.55,10.16,5.35,26.71,14.56,51.08,34.64,70.49,58.07,7.64,9.23,12.32,22.88,10.42,30.44-.64,2.55-1.86,3.99-4.21,4.95-5.95,2.44-12.8-2.68-23.37-11.4-3.39-2.8-6.89-5.69-10.5-8.19-12.44-8.62-28.24-12.18-44.47-10.03-15.8,2.1-30.28,9.32-40.75,20.36-20.33,21.4-25.8,56.3-13.3,84.87,1.99,4.56,4.38,9.29,6.68,13.86,10.06,19.97,16.04,33.67,7.88,41.9-4.63,4.67-13.07,5.68-22.01,6.74-1.24.15-2.47.29-3.69.45-54.76,7.02-104.12,44.39-125.75,95.19-11.55,27.13-9.93,52.67,4.34,68.32,11.34,12.43,27.42,17.05,47.79,13.71,13.29-2.18,28.08-7.57,46.56-16.99,17.92-9.13,36.95-17.16,54.64-14.04,9.13,1.61,18.06,7.92,22.75,16.09,2.24,3.9,4.42,9.88,2.07,16.23-5.17,14.01-25.01,17.63-44.19,21.12-2.87.52-5.84,1.06-8.69,1.63-28.86,5.74-56.71,21.07-78.41,43.17-21.7,22.1-36.54,50.21-41.76,79.17-1.17,6.47-2.08,14.12,0,21.83,4.98,18.42,23.75,27.58,40.14,28.5,26.74,1.49,49.78-13.6,70.72-30.14l2.99-2.36c16.82-13.33,34.21-27.11,53.82-29.64,10.69-1.38,23.08,2.77,30.83,10.33,3.6,3.51,7.72,9.28,6.92,16.86-.47,4.5-2.56,9.27-6.2,14.2-4.8,6.48-11.35,12.23-18.28,18.33-12.91,11.34-27.54,24.19-30.3,43.73-1.38,9.73.55,20.41,5.58,30.9,12.75,26.58,39.38,42.07,61.15,52.59,4.04,1.95,8.17,3.87,12.16,5.73,18.77,8.73,36.5,16.98,50.2,30.25,14.39,13.94,24.28,38.39,14.28,56.26-2.03,3.62-4.94,6.25-6.93,6.25h0c-3.35,0-7.5-6.35-10.84-11.46-.86-1.31-1.7-2.61-2.55-3.85-10.78-15.74-28.86-26.05-49.61-28.28-20.73-2.24-40.61,3.97-54.5,17.05-12.47,11.73-19.9,29.17-20.39,47.82-.5,19.37,6.33,37.91,18.74,50.87,2.96,3.09,4.7,6.98,4.9,10.95.73,14.57-6.11,29.27-17.42,37.46-8.03,5.81-18.09,8.91-28.74,12.18-4.2,1.29-8.54,2.63-12.82,4.16-50.88,18.19-90.44,67.15-98.46,121.83-1.5,10.23,1.15,20.35,7.46,28.5,6.28,8.11,15.36,13.19,25.56,14.29,21.85,2.36,44.85-4.96,67.1-12.03,26.44-8.41,51.41-16.35,73.96-9.55,3.12.94,5.16,1.94,6.23,3.07.7.73,2.55,2.67.31,8.59-1.81,4.78-5.76,10.37-10.57,14.97-18.24,17.41-38.54,32.68-60.32,45.38-3.73,2.17-7.5,4.32-11.49,6.59-22.64,12.88-48.29,27.48-64.61,47.47-8.6,10.54-10.82,24.41-5.92,37.11,4.91,12.74,15.9,21.56,29.4,23.6,26.73,4.04,53.88,1,78.53-8.79,4.71-1.87,9.3-3.97,13.74-6,9.82-4.49,19.09-8.73,28.72-10.23,11.47-1.79,25.63,2.2,29.47,11.97,3.81,9.71-2.59,22.31-8.9,33.35-11.36,19.91-22.11,37.03-38.58,44.92-1.47.7-2.92,1.39-4.35,2.06-8.36,3.95-16.26,7.67-24.37,13.44-2.83,2.02-6.33,3.89-10.04,5.87-6.61,3.53-14.1,7.53-19.72,13.61-21.41,23.15-24.51,49.03-8.5,71.01,9.57,13.13,25.58,23.6,43.94,28.73,19.06,5.32,37.92,4.37,53.11-2.69,9.79-4.55,20.93,5.74,36.82,21.95,7.02,7.16,14.27,14.56,21.81,19.82,8.43,5.88,16.38,11.79,21.02,19.4,6.15,10.07,6.21,22.87,5.19,31.83-.62,5.42-1.82,8.89-3.57,10.29-2.57,2.06-8.81.44-13.08-3.41-3.14-2.83-5.88-6.55-8.78-10.48-2.72-3.69-5.53-7.51-9.01-11.08-10.9-11.22-25.17-16.95-40.05-22.3-20.9-7.52-42.93-13.11-62.34-3.25-24,12.19-30.26,40.76-28.32,61.52,1.36,14.56,5.9,28.14,10.3,41.28,2.1,6.29,4.09,12.23,5.76,18.28,4.2,15.25,3.68,26.46-1.54,33.32-6.11,8.03-18.25,10.16-31.1,12.42-3.92.69-7.97,1.4-11.91,2.3-24.11,5.49-47.64,19.95-68.02,41.83-3.29,3.53-6.88,7.06-10.68,10.8-15.8,15.53-33.7,33.14-34.68,57.06-.95,23.4,6.79,41.7,21.8,51.52,14.03,9.18,32.95,12.38,53.27,9.01,22.64-3.75,42.86-14.17,62.42-24.24l1.61-.83c8.4-4.32,15.38-7.65,22.26-7.81,10.47-.24,21.09,8.59,23.24,19.31,2.17,10.78-3.74,23.31-13.74,29.14-5.41,3.16-12.04,4.79-19.06,6.52-3.35.83-6.82,1.68-10.29,2.73-28.67,8.72-50.64,28.8-71.88,48.22-6.3,5.76-12.81,11.71-19.29,17.15-1.95,1.63-3.92,3.25-5.9,4.87-10.25,8.39-20.86,17.06-28.58,28.91-9.67,14.83-14.1,37.29-2.19,54.02,4.76,6.69,11.75,12,21.36,16.23,25.57,11.25,56.18,9.06,79.89-5.72,11.93-7.44,21.39-17.37,30.54-26.98,1.93-2.02,3.85-4.04,5.79-6.03,9.32-9.55,20.62-19.82,33.75-23.62,10.29-2.98,24.57-1.05,30.74,8.38,8.05,12.3-.5,31.02-10.27,43.3-8.3,10.44-18,19.68-28.84,27.46-3.2,2.3-6.49,4.48-9.98,6.78-10.86,7.18-22.09,14.61-30.44,25.86-8.13,10.96-12.14,23.9-15.68,35.31-1.79,5.76-2.16,16.03-.81,21.98.12.52.32,2.08.46,3.22.31,2.41.63,4.94,1.17,7.37-1.65,16.51,12.19,36.14,24.59,51.53,11.82,14.69,28.12,23.12,43.89,31.27,3.37,1.74,6.85,3.55,10.16,5.35,26.71,14.56,51.08,34.64,70.49,58.07,7.64,9.23,12.32,22.88,10.42,30.44-.64,2.55-1.86,3.99-4.21,4.95-5.96,2.43-12.81-2.68-23.38-11.4-3.39-2.79-6.89-5.69-10.5-8.19-12.44-8.62-28.24-12.18-44.47-10.03-15.8,2.1-30.27,9.32-40.75,20.36-20.33,21.4-25.8,56.3-13.3,84.87,1.99,4.56,4.38,9.29,6.68,13.86,10.06,19.97,16.04,33.67,7.88,41.9-4.63,4.67-13.07,5.68-22.01,6.74-1.24.15-2.47.29-3.69.45-54.76,7.02-104.12,44.39-125.75,95.19-11.55,27.13-9.93,52.67,4.34,68.32,11.34,12.44,27.42,17.05,47.79,13.71,13.29-2.18,28.08-7.57,46.56-16.99,17.93-9.13,36.95-17.16,54.64-14.04,9.13,1.61,18.06,7.92,22.75,16.09,2.24,3.9,4.42,9.88,2.07,16.23-5.17,14.01-25.01,17.63-44.19,21.12-2.87.52-5.84,1.06-8.69,1.63-28.86,5.74-56.71,21.07-78.41,43.17s-36.54,50.21-41.76,79.17c-1.17,6.47-2.08,14.12,0,21.83,4.98,18.42,23.75,27.58,40.14,28.5,26.73,1.49,49.78-13.6,70.72-30.14l2.99-2.37c16.82-13.33,34.21-27.11,53.82-29.64,10.69-1.38,23.08,2.77,30.83,10.33,3.6,3.51,7.71,9.28,6.92,16.86-.47,4.5-2.56,9.27-6.2,14.2-4.8,6.48-11.35,12.23-18.28,18.33-12.91,11.34-27.54,24.19-30.3,43.73-1.38,9.73.55,20.42,5.58,30.9,12.75,26.58,39.38,42.07,61.15,52.59,4.04,1.95,8.17,3.87,12.16,5.73,18.77,8.73,36.5,16.98,50.2,30.25,14.39,13.94,24.29,38.39,14.28,56.26-2.03,3.62-4.94,6.25-6.93,6.25h0c-3.35,0-7.5-6.35-10.84-11.46-.86-1.31-1.71-2.61-2.55-3.85-10.78-15.74-28.86-26.05-49.61-28.28-20.74-2.24-40.61,3.97-54.5,17.05-12.47,11.74-19.9,29.17-20.39,47.83-.5,19.37,6.33,37.91,18.74,50.87,2.96,3.09,4.7,6.98,4.9,10.95.73,14.57-6.11,29.27-17.42,37.46-8.03,5.81-18.09,8.91-28.74,12.18-4.2,1.29-8.54,2.63-12.82,4.16-50.88,18.19-90.44,67.15-98.46,121.83-1.5,10.23,1.15,20.35,7.46,28.5,6.28,8.11,15.36,13.19,25.56,14.29,21.85,2.36,44.85-4.96,67.1-12.04,26.44-8.41,51.41-16.35,73.96-9.55,3.12.94,5.16,1.94,6.23,3.06.7.73,2.55,2.67.31,8.59-1.8,4.78-5.76,10.37-10.57,14.97-18.24,17.41-38.54,32.68-60.33,45.38-3.73,2.17-7.5,4.32-11.49,6.59-22.64,12.88-48.29,27.48-64.61,47.47-8.6,10.54-10.82,24.41-5.92,37.11,4.91,12.74,15.9,21.56,29.4,23.6,26.73,4.04,53.88,1,78.53-8.79,4.71-1.87,9.3-3.97,13.74-6,9.82-4.49,19.09-8.73,28.72-10.23,11.47-1.79,25.63,2.2,29.47,11.97,3.81,9.71-2.59,22.31-8.89,33.35-11.36,19.91-22.11,37.03-38.58,44.92-1.47.7-2.91,1.39-4.34,2.06-8.37,3.95-16.27,7.68-24.38,13.45-2.83,2.02-6.33,3.89-10.04,5.87-6.61,3.53-14.1,7.53-19.72,13.61-21.41,23.15-24.51,49.03-8.5,71.01,9.57,13.13,25.58,23.6,43.94,28.73,19.06,5.32,37.92,4.37,53.11-2.69,9.79-4.55,20.93,5.74,36.82,21.95,7.02,7.16,14.27,14.56,21.81,19.82,8.43,5.88,16.38,11.8,21.02,19.41,6.15,10.07,6.21,22.87,5.19,31.83-.62,5.42-1.82,8.89-3.57,10.29-2.57,2.06-8.81.44-13.08-3.41-3.14-2.83-5.88-6.54-8.78-10.48-2.72-3.69-5.53-7.51-9.01-11.08-10.9-11.22-25.17-16.95-40.05-22.3-20.9-7.52-42.93-13.11-62.34-3.25-24,12.19-30.26,40.76-28.32,61.52,1.36,14.56,5.9,28.14,10.3,41.28,2.1,6.29,4.09,12.23,5.76,18.29,4.2,15.25,3.69,26.46-1.54,33.32-6.11,8.03-18.25,10.16-31.1,12.42-3.92.69-7.97,1.4-11.91,2.3-24.11,5.49-47.63,19.95-68.02,41.83-3.29,3.53-6.88,7.06-10.68,10.8-15.8,15.53-33.7,33.14-34.67,57.06-.95,23.4,6.79,41.7,21.8,51.52,14.03,9.18,32.94,12.38,53.27,9.01,22.64-3.75,42.86-14.17,62.42-24.24l1.61-.83c8.4-4.32,15.38-7.65,22.26-7.81,10.45-.23,21.09,8.59,23.24,19.31,2.17,10.78-3.74,23.31-13.74,29.15-5.41,3.16-12.04,4.79-19.06,6.52-3.35.83-6.82,1.68-10.29,2.73-28.67,8.72-50.64,28.8-71.88,48.22-6.3,5.76-12.81,11.71-19.29,17.15-1.95,1.63-3.92,3.25-5.9,4.87-10.25,8.39-20.86,17.06-28.58,28.91-9.67,14.83-14.1,37.29-2.19,54.02,4.76,6.69,11.75,12,21.36,16.23,25.57,11.25,56.18,9.06,79.89-5.72,11.93-7.44,21.39-17.37,30.54-26.98,1.93-2.02,3.85-4.04,5.79-6.03,9.32-9.55,20.62-19.82,33.75-23.62,10.29-2.98,24.57-1.05,30.74,8.38,8.05,12.31-.5,31.02-10.28,43.3-8.3,10.44-18.01,19.68-28.84,27.46-3.2,2.3-6.49,4.48-9.98,6.78-10.86,7.18-22.09,14.61-30.44,25.86-8.14,10.97-12.14,23.9-15.68,35.31-1.79,5.76-2.16,16.03-.81,21.98.13.58.33,1.64.6,3.02,4.37,22.56,7.03,29.69,12.38,33.17.04.03.08.05.13.08,4.52,6.5,9.97,12.92,15.14,19,2.2,2.59,4.28,5.04,6.02,7.19,11.82,14.68,28.12,23.11,43.88,31.27,3.37,1.74,6.86,3.55,10.17,5.35,26.71,14.56,51.09,34.64,70.49,58.07,7.64,9.23,12.32,22.88,10.42,30.44-.64,2.55-1.86,3.99-4.21,4.95-5.95,2.44-12.8-2.68-23.37-11.4-3.39-2.79-6.89-5.69-10.5-8.19-12.44-8.62-28.24-12.19-44.47-10.03-15.8,2.1-30.28,9.32-40.75,20.36-20.33,21.4-25.8,56.3-13.3,84.87,1.99,4.56,4.38,9.29,6.68,13.86,10.06,19.97,16.04,33.67,7.88,41.9-4.63,4.67-13.08,5.68-22.01,6.74-1.24.15-2.47.29-3.69.45-54.76,7.02-104.12,44.39-125.75,95.19-11.55,27.13-9.93,52.67,4.34,68.32,11.34,12.44,27.42,17.05,47.79,13.71,13.29-2.18,28.08-7.57,46.56-16.99,17.92-9.13,36.95-17.16,54.64-14.04,9.13,1.61,18.06,7.92,22.75,16.09,2.24,3.9,4.42,9.88,2.07,16.23-5.17,14.01-25.01,17.63-44.19,21.12-2.87.52-5.84,1.06-8.68,1.63-28.86,5.74-56.71,21.07-78.41,43.17s-36.54,50.21-41.76,79.17c-1.17,6.47-2.08,14.12,0,21.83,4.98,18.42,23.75,27.58,40.14,28.5,26.71,1.49,49.78-13.6,70.72-30.14l2.99-2.37c16.82-13.33,34.2-27.11,53.82-29.64,10.7-1.38,23.08,2.77,30.83,10.33,3.6,3.51,7.72,9.28,6.92,16.86-.47,4.49-2.56,9.27-6.2,14.2-4.8,6.48-11.35,12.23-18.28,18.33-12.91,11.34-27.54,24.19-30.3,43.73-1.38,9.73.55,20.42,5.58,30.9,12.75,26.58,39.38,42.07,61.15,52.59,4.04,1.95,8.17,3.87,12.16,5.73,18.77,8.73,36.5,16.98,50.21,30.25,14.39,13.94,24.28,38.39,14.28,56.26-2.02,3.62-4.94,6.25-6.93,6.25h0c-3.35,0-7.5-6.35-10.83-11.46-.86-1.31-1.71-2.61-2.55-3.85-10.78-15.74-28.87-26.05-49.61-28.28-20.74-2.24-40.61,3.98-54.5,17.05-12.47,11.74-19.9,29.17-20.39,47.83-.5,19.37,6.33,37.91,18.74,50.87,2.96,3.09,4.7,6.98,4.9,10.95.73,14.57-6.11,29.27-17.42,37.46-8.03,5.81-18.09,8.91-28.74,12.18-4.2,1.29-8.54,2.63-12.82,4.16-50.88,18.19-90.44,67.15-98.46,121.83-1.5,10.23,1.15,20.35,7.46,28.5,6.28,8.11,15.36,13.19,25.56,14.29,21.85,2.36,44.85-4.96,67.1-12.04,26.44-8.41,51.41-16.35,73.96-9.55,3.12.94,5.16,1.94,6.23,3.06.7.73,2.55,2.67.31,8.59-1.8,4.78-5.76,10.37-10.57,14.97-18.24,17.41-38.54,32.68-60.32,45.38-3.73,2.17-7.5,4.32-11.49,6.59-22.64,12.88-48.29,27.48-64.61,47.48-8.6,10.54-10.82,24.41-5.92,37.11,4.91,12.74,15.9,21.56,29.4,23.6,26.73,4.04,53.88,1,78.53-8.79,4.71-1.87,9.3-3.97,13.74-6,9.82-4.49,19.09-8.73,28.72-10.23,11.47-1.79,25.63,2.2,29.47,11.97,3.81,9.71-2.59,22.31-8.9,33.35-11.36,19.91-22.11,37.03-38.57,44.92-1.47.7-2.92,1.38-4.35,2.06-8.37,3.95-16.27,7.68-24.38,13.45-2.83,2.01-6.33,3.89-10.04,5.87-6.61,3.53-14.1,7.53-19.72,13.61-21.41,23.15-24.51,49.03-8.5,71.01,9.57,13.13,25.58,23.6,43.94,28.73,19.06,5.33,37.92,4.37,53.11-2.68,9.79-4.54,20.93,5.74,36.82,21.95,7.02,7.16,14.27,14.56,21.81,19.82,8.43,5.88,16.38,11.8,21.02,19.41,6.15,10.07,6.21,22.87,5.19,31.83-.62,5.42-1.82,8.89-3.57,10.29-2.57,2.07-8.81.44-13.08-3.41-3.14-2.83-5.88-6.55-8.78-10.48-2.72-3.69-5.53-7.51-9.01-11.08-10.9-11.22-25.17-16.95-40.05-22.3-20.91-7.52-42.93-13.11-62.34-3.25-24,12.19-30.26,40.76-28.32,61.52,1.36,14.56,5.9,28.14,10.3,41.28,2.1,6.29,4.09,12.23,5.76,18.29,4.2,15.25,3.68,26.46-1.54,33.32-6.11,8.03-18.25,10.16-31.1,12.42-3.92.69-7.96,1.4-11.91,2.3-24.11,5.49-47.64,19.96-68.02,41.83-3.29,3.53-6.88,7.06-10.68,10.8-15.79,15.53-33.7,33.14-34.67,57.05-.96,23.4,6.79,41.7,21.8,51.53,14.03,9.18,32.94,12.38,53.27,9.01,22.64-3.75,42.86-14.17,62.42-24.24l1.62-.83c8.4-4.32,15.37-7.64,22.26-7.81.15,0,.29,0,.44,0,10.3,0,20.68,8.75,22.8,19.32,2.17,10.78-3.74,23.31-13.74,29.14-5.41,3.16-12.04,4.79-19.06,6.52-3.35.83-6.82,1.68-10.29,2.73-28.67,8.72-50.64,28.8-71.88,48.22-6.3,5.76-12.81,11.71-19.29,17.15-1.95,1.63-3.92,3.25-5.9,4.87-10.25,8.39-20.85,17.06-28.58,28.9-9.67,14.83-14.1,37.29-2.19,54.02,4.76,6.69,11.75,12,21.36,16.23,25.57,11.25,56.18,9.06,79.89-5.72,11.93-7.43,21.39-17.37,30.53-26.97,1.93-2.02,3.85-4.04,5.8-6.04,9.32-9.55,20.62-19.82,33.75-23.62,10.29-2.97,24.57-1.05,30.74,8.38,8.05,12.3-.5,31.02-10.27,43.3-8.3,10.44-18,19.68-28.84,27.46-3.2,2.3-6.49,4.47-9.98,6.78-10.86,7.18-22.09,14.61-30.44,25.86-5.02,6.76-8.46,14.27-11.2,21.71-2.99,3.27-4.96,7.69-5.84,13.21-.67,4.18-.68,8.88-.26,13.82.01,3.16.27,6.19.81,8.54.08.33.2.9.37,1.66,7.65,34.87,11.4,43.38,15.19,46.91,4.99,11.53,10.28,21.31,14.52,26.57,11.82,14.68,28.12,23.12,43.89,31.27,3.37,1.74,6.86,3.55,10.17,5.35,26.71,14.56,51.08,34.64,70.49,58.07,7.64,9.23,12.32,22.88,10.42,30.44-.64,2.55-1.86,3.99-4.21,4.95-5.96,2.43-12.81-2.68-23.37-11.4-3.39-2.79-6.89-5.69-10.51-8.19-12.44-8.62-28.24-12.18-44.47-10.03-15.8,2.1-30.28,9.33-40.75,20.36-20.33,21.4-25.8,56.3-13.3,84.87,1.99,4.56,4.38,9.29,6.68,13.86,10.06,19.97,16.04,33.67,7.88,41.9-4.63,4.67-13.07,5.68-22.01,6.74-1.24.15-2.47.29-3.69.45-54.76,7.02-104.12,44.38-125.75,95.19-11.55,27.13-9.93,52.67,4.34,68.32,11.34,12.43,27.42,17.05,47.79,13.71,13.29-2.18,28.08-7.57,46.56-16.99,17.92-9.13,36.95-17.16,54.64-14.04,9.13,1.61,18.06,7.92,22.75,16.09,2.24,3.9,4.42,9.88,2.07,16.23-5.17,14.01-25.01,17.63-44.19,21.12-2.87.52-5.84,1.06-8.68,1.63-28.86,5.74-56.71,21.07-78.41,43.17s-36.54,50.21-41.76,79.17c-1.17,6.47-2.08,14.12,0,21.83,4.98,18.42,23.75,27.58,40.14,28.5,26.72,1.48,49.78-13.6,70.72-30.14l2.99-2.37c16.82-13.33,34.21-27.11,53.82-29.64,10.69-1.38,23.08,2.77,30.83,10.34,3.6,3.51,7.72,9.28,6.92,16.86-.47,4.49-2.56,9.27-6.2,14.2-4.8,6.48-11.35,12.23-18.28,18.33-12.91,11.34-27.54,24.19-30.3,43.73-1.38,9.73.55,20.42,5.58,30.9,12.75,26.58,39.38,42.07,61.15,52.59,4.04,1.95,8.17,3.87,12.16,5.73,18.77,8.73,36.5,16.98,50.2,30.25,14.39,13.94,24.28,38.39,14.28,56.26-2.03,3.62-4.94,6.25-6.93,6.25h0c-3.35,0-7.5-6.35-10.83-11.46-.86-1.31-1.71-2.61-2.55-3.85-10.78-15.74-28.87-26.04-49.61-28.28-20.74-2.23-40.61,3.98-54.5,17.05-12.47,11.74-19.9,29.17-20.39,47.83-.5,19.37,6.33,37.91,18.74,50.87,2.96,3.09,4.7,6.98,4.9,10.95.73,14.57-6.11,29.27-17.42,37.46-8.03,5.81-18.09,8.91-28.74,12.18-4.2,1.29-8.54,2.63-12.82,4.16-50.88,18.19-90.44,67.15-98.46,121.83-1.5,10.23,1.15,20.35,7.46,28.5,6.28,8.11,15.36,13.19,25.56,14.29,21.85,2.36,44.85-4.96,67.1-12.04,26.44-8.41,51.41-16.35,73.96-9.55,3.12.94,5.16,1.94,6.23,3.06.7.73,2.55,2.67.31,8.59-1.8,4.78-5.76,10.37-10.57,14.97-18.24,17.41-38.54,32.68-60.32,45.38-3.73,2.17-7.5,4.32-11.49,6.59-22.64,12.88-48.29,27.48-64.61,47.47-8.6,10.54-10.82,24.41-5.92,37.11,4.91,12.74,15.9,21.56,29.4,23.6,26.73,4.04,53.88,1,78.53-8.79,4.71-1.87,9.3-3.97,13.74-6,9.82-4.49,19.09-8.73,28.72-10.23,11.47-1.79,25.63,2.2,29.47,11.97,3.81,9.71-2.59,22.31-8.9,33.35-11.36,19.91-22.1,37.03-38.57,44.92-1.47.7-2.92,1.38-4.35,2.06-8.37,3.95-16.27,7.68-24.38,13.45-2.83,2.01-6.33,3.88-10.04,5.87-6.61,3.53-14.1,7.53-19.72,13.61-21.41,23.15-24.51,49.03-8.5,71.01,9.57,13.13,25.58,23.6,43.94,28.73,19.06,5.32,37.92,4.37,53.11-2.68,9.79-4.54,20.93,5.74,36.82,21.95,7.02,7.16,14.27,14.56,21.81,19.82,8.43,5.88,16.38,11.8,21.02,19.41,6.15,10.07,6.21,22.87,5.19,31.83-.62,5.42-1.82,8.89-3.57,10.29-2.57,2.07-8.81.44-13.08-3.41-3.14-2.83-5.88-6.54-8.78-10.48-2.72-3.69-5.53-7.51-9.01-11.08-10.9-11.22-25.17-16.95-40.05-22.3-20.91-7.52-42.92-13.11-62.34-3.25-24,12.19-30.26,40.76-28.32,61.52,1.36,14.56,5.9,28.15,10.3,41.28,2.1,6.29,4.09,12.23,5.76,18.29,4.2,15.25,3.68,26.46-1.54,33.32-6.11,8.03-18.25,10.16-31.11,12.42-3.92.69-7.96,1.4-11.91,2.3-24.11,5.49-47.63,19.96-68.02,41.83-3.29,3.53-6.88,7.06-10.68,10.8-15.8,15.53-33.7,33.14-34.67,57.06-.96,23.4,6.79,41.7,21.8,51.53,14.03,9.18,32.95,12.38,53.27,9.01,22.64-3.75,42.86-14.17,62.42-24.24l1.62-.83c8.4-4.32,15.37-7.65,22.26-7.81,10.47-.3,21.09,8.59,23.24,19.31,2.17,10.78-3.74,23.31-13.74,29.14-5.41,3.16-12.04,4.79-19.06,6.52-3.35.83-6.82,1.68-10.29,2.73-28.68,8.72-50.64,28.8-71.88,48.22-6.3,5.76-12.81,11.71-19.29,17.15-1.95,1.63-3.92,3.25-5.9,4.87-10.25,8.39-20.85,17.06-28.57,28.9-9.67,14.83-14.1,37.29-2.19,54.02,4.76,6.69,11.75,12,21.36,16.23,25.57,11.25,56.18,9.06,79.89-5.72,11.93-7.43,21.39-17.37,30.53-26.97,1.93-2.02,3.85-4.04,5.8-6.04,9.32-9.55,20.62-19.82,33.75-23.62,10.3-2.97,24.57-1.05,30.74,8.38,8.05,12.3-.5,31.02-10.28,43.3-8.3,10.44-18,19.68-28.84,27.46-3.2,2.3-6.49,4.48-9.98,6.78-10.86,7.18-22.09,14.61-30.44,25.86-8.13,10.96-12.14,23.9-15.68,35.31-1.79,5.76-2.16,16.03-.81,21.98.4,1.77,2.04,6.23,4.08,11.4,2.81,8.84,6.82,17.9,11.02,26.04,6.82,14.82,10.05,18.84,12.22,20.58,1.22,1.75,2.35,3.28,3.35,4.52,11.82,14.68,28.12,23.12,43.89,31.27,3.37,1.74,6.85,3.55,10.16,5.35,26.71,14.56,51.08,34.64,70.49,58.07,7.64,9.23,12.32,22.88,10.42,30.44-.64,2.55-1.86,3.99-4.21,4.95-5.96,2.44-12.81-2.68-23.38-11.4-3.39-2.79-6.89-5.68-10.5-8.19-12.44-8.62-28.24-12.18-44.47-10.03-15.8,2.09-30.28,9.32-40.75,20.36-20.33,21.4-25.8,56.3-13.3,84.87,1.99,4.56,4.38,9.29,6.68,13.86,10.06,19.97,16.04,33.67,7.88,41.9-4.63,4.67-13.07,5.68-22.01,6.74-1.24.15-2.47.29-3.69.45-54.76,7.02-104.12,44.38-125.75,95.19-11.55,27.13-9.93,52.67,4.34,68.32,11.34,12.43,27.42,17.04,47.79,13.71,13.29-2.18,28.08-7.57,46.56-16.99,17.92-9.13,36.95-17.16,54.64-14.04,9.13,1.61,18.06,7.93,22.75,16.09,2.24,3.9,4.42,9.88,2.07,16.23-5.17,14.01-25.01,17.63-44.19,21.12-2.87.52-5.84,1.06-8.68,1.63-28.86,5.74-56.71,21.07-78.41,43.17-21.7,22.1-36.54,50.21-41.76,79.17-1.17,6.47-2.08,14.12,0,21.83,4.98,18.42,23.75,27.58,40.14,28.5,26.73,1.5,49.78-13.6,70.72-30.14l2.99-2.37c16.82-13.33,34.21-27.11,53.82-29.64,10.69-1.38,23.08,2.77,30.83,10.33,3.6,3.51,7.72,9.29,6.92,16.86-.47,4.5-2.56,9.27-6.2,14.2-4.8,6.48-11.35,12.24-18.28,18.33-12.91,11.34-27.54,24.18-30.3,43.73-1.38,9.73.55,20.42,5.58,30.9,12.75,26.58,39.38,42.07,61.15,52.59,4.04,1.95,8.17,3.87,12.16,5.73,18.77,8.73,36.5,16.98,50.2,30.25,14.39,13.94,24.28,38.39,14.28,56.26-2.03,3.62-4.94,6.25-6.93,6.25h0c-3.35,0-7.5-6.35-10.84-11.46-.86-1.31-1.71-2.61-2.55-3.85-10.78-15.74-28.87-26.05-49.61-28.29-20.74-2.23-40.61,3.98-54.5,17.05-12.47,11.74-19.9,29.17-20.39,47.83-.5,19.37,6.33,37.91,18.74,50.87,2.96,3.09,4.7,6.98,4.9,10.95.73,14.57-6.11,29.27-17.42,37.46-8.03,5.81-18.09,8.91-28.74,12.18-4.2,1.29-8.54,2.63-12.82,4.16-50.88,18.19-90.44,67.15-98.46,121.83-1.5,10.23,1.15,20.35,7.46,28.5,6.28,8.11,15.36,13.19,25.56,14.29,21.84,2.36,44.85-4.96,67.1-12.04,26.44-8.41,51.41-16.35,73.96-9.55,3.12.94,5.16,1.94,6.23,3.06.7.73,2.55,2.67.31,8.59-1.8,4.78-5.76,10.37-10.57,14.97-18.24,17.41-38.54,32.68-60.32,45.38-3.73,2.17-7.5,4.32-11.49,6.59-22.64,12.88-48.29,27.48-64.61,47.48-8.6,10.54-10.82,24.41-5.92,37.11,4.91,12.74,15.9,21.56,29.4,23.6,26.73,4.04,53.88,1,78.53-8.79,4.71-1.87,9.3-3.97,13.74-6,9.82-4.49,19.09-8.73,28.72-10.23,11.47-1.79,25.63,2.2,29.47,11.97,3.81,9.71-2.59,22.31-8.9,33.35-11.36,19.91-22.11,37.03-38.58,44.92-1.47.7-2.92,1.39-4.35,2.06-8.36,3.95-16.26,7.67-24.38,13.45-2.83,2.01-6.33,3.88-10.04,5.87-6.61,3.53-14.1,7.53-19.72,13.61-21.41,23.15-24.51,49.03-8.5,71.01,9.57,13.13,25.58,23.6,43.94,28.73,19.06,5.32,37.92,4.37,53.11-2.68,9.79-4.55,20.93,5.74,36.82,21.95,7.02,7.16,14.27,14.56,21.81,19.82,8.43,5.88,16.38,11.79,21.02,19.41,6.15,10.07,6.21,22.87,5.19,31.83-.62,5.42-1.82,8.89-3.57,10.29-2.57,2.06-8.81.44-13.08-3.41-3.14-2.83-5.88-6.54-8.78-10.48-2.72-3.69-5.53-7.51-9.01-11.08-10.9-11.22-25.17-16.95-40.05-22.3-20.9-7.52-42.93-13.11-62.34-3.25-24,12.19-30.26,40.76-28.33,61.52,1.36,14.56,5.9,28.14,10.3,41.28,2.1,6.29,4.09,12.23,5.76,18.29,4.2,15.25,3.69,26.46-1.54,33.32-6.11,8.03-18.25,10.16-31.1,12.42-3.92.69-7.96,1.4-11.91,2.3-24.11,5.49-47.64,19.96-68.02,41.83-3.29,3.53-6.88,7.06-10.68,10.8-15.79,15.53-33.7,33.14-34.67,57.06-.95,23.4,6.79,41.7,21.8,51.52,14.03,9.18,32.95,12.39,53.27,9.01,22.64-3.75,42.86-14.17,62.42-24.24l1.62-.83c8.4-4.33,15.37-7.65,22.26-7.81,10.47-.26,21.09,8.59,23.24,19.31,2.16,10.78-3.74,23.31-13.74,29.14-5.41,3.16-12.04,4.79-19.06,6.52-3.35.83-6.82,1.68-10.29,2.73-28.67,8.72-50.64,28.8-71.88,48.22-6.3,5.76-12.81,11.71-19.29,17.15-1.95,1.63-3.92,3.25-5.9,4.87-10.25,8.39-20.85,17.06-28.58,28.9-9.67,14.83-14.1,37.29-2.19,54.02,4.76,6.69,11.75,12,21.36,16.23,25.57,11.25,56.18,9.06,79.89-5.72,11.93-7.43,21.39-17.37,30.53-26.97,1.93-2.02,3.85-4.04,5.8-6.04,9.32-9.55,20.62-19.83,33.75-23.62,10.29-2.98,24.57-1.05,30.74,8.38,8.05,12.3-.5,31.02-10.28,43.3-8.3,10.44-18,19.68-28.84,27.46-3.2,2.3-6.49,4.48-9.98,6.78-10.86,7.18-22.09,14.61-30.44,25.86-8.14,10.96-12.14,23.9-15.68,35.31-1.79,5.76-2.16,16.03-.81,21.98,1.15,5.07,4,7.76,6.19,9.13,2.54,1.59,5.23,2.08,7.67,2.08s4.78-.52,6.35-.88l-4.3-18.64c1.68.76,3.25,2.33,3.6,3.86-.57-2.49-.33-9.22.41-11.61,3.21-10.37,6.53-21.08,12.64-29.31,6.25-8.42,15.55-14.58,25.41-21.09,3.5-2.31,7.11-4.7,10.62-7.22,12.33-8.86,23.37-19.37,32.82-31.25,14.59-18.34,25.24-45.5,11.36-66.71-10.36-15.83-32.17-22.67-53.03-16.64-17.6,5.09-31.37,17.45-42.51,28.86-2,2.05-3.98,4.13-5.97,6.21-8.67,9.1-16.86,17.7-26.63,23.79-17.9,11.16-41.94,12.88-61.25,4.38-6.21-2.73-10.51-5.85-13.12-9.52-6.41-9.01-3.12-22.65,2.65-31.51,6.03-9.25,14.99-16.58,24.48-24.35,2.04-1.67,4.08-3.34,6.1-5.03,6.8-5.71,13.47-11.81,19.92-17.71,20.5-18.74,39.87-36.44,64.21-43.84,2.96-.9,6.01-1.65,9.25-2.45,8.09-1.99,16.45-4.05,24.36-8.66,17.31-10.1,27.1-31.28,23.27-50.36-4.08-20.32-23.12-35.85-43.34-35.37-12.02.29-22.51,5.69-30.93,10.02l-1.62.83c-18.18,9.37-36.99,19.05-56.53,22.29-15.36,2.54-29.23.41-39.05-6.02-12.45-8.15-13.08-26.47-12.77-33.98.65-16.02,14.92-30.04,28.71-43.61,3.79-3.72,7.7-7.58,11.29-11.43,12.3-13.2,32.32-30.16,57.83-35.97,3.46-.79,7.09-1.43,10.93-2.1,15.33-2.69,32.7-5.75,43.56-20,9.2-12.09,10.85-29.16,4.91-50.75-1.81-6.58-3.98-13.06-6.08-19.32-4.22-12.62-8.21-24.53-9.35-36.79-1.46-15.67,3.38-34.68,17.47-41.83,13.28-6.75,30.98-1.35,46.52,4.24,13.08,4.7,24.54,9.26,32.48,17.42,2.53,2.6,4.82,5.71,7.25,9.01,3.36,4.56,6.84,9.28,11.49,13.47,10.34,9.31,27.05,13.73,38.99,4.15,8.11-6.51,10.12-16.59,10.92-23.61,1.99-17.32-.78-32.72-7.99-44.53-6.66-10.9-16.81-18.52-26.64-25.38-6.01-4.2-12.31-10.62-18.98-17.42-16.13-16.45-36.2-36.93-59.53-26.08-22.32,10.37-57.53.8-72.46-19.68-10.15-13.93-7.72-29.72,7.02-45.65,3.33-3.6,8.74-6.49,14.46-9.55,4.1-2.19,8.34-4.45,12.22-7.21,6.66-4.74,13.45-7.94,21.31-11.65,1.47-.69,2.95-1.39,4.45-2.11,23.44-11.23,37.23-35.4,47.31-53.04,6.21-10.88,17.77-31.14,10.14-50.58-7.87-20.04-31.7-27.45-51.16-24.42-12.36,1.93-23.34,6.95-33.96,11.81-4.41,2.02-8.57,3.92-12.81,5.61-21.36,8.49-44.92,11.12-68.15,7.6-6.31-.95-11.44-5.07-13.73-11.02-2.28-5.91-1.25-12.36,2.75-17.27,13.96-17.1,36.86-30.13,59.01-42.74,3.86-2.2,7.85-4.46,11.67-6.69,23.14-13.49,44.69-29.7,64.06-48.19,6.98-6.66,12.62-14.82,15.47-22.37,4.31-11.41,2.69-21.88-4.55-29.47-4.69-4.91-10.76-7.15-14.92-8.4-28.48-8.59-57.62.68-85.8,9.64-21.2,6.75-41.23,13.12-58.89,11.21-4.75-.51-8.97-2.88-11.9-6.65-2.95-3.82-4.19-8.56-3.49-13.36,6.98-47.57,41.3-90.13,85.41-105.9,3.86-1.38,7.79-2.59,11.96-3.87,11.74-3.61,23.88-7.34,34.59-15.1,16.9-12.24,26.74-33.18,25.67-54.66-.44-8.77-4.14-17.22-10.43-23.79-8.75-9.13-13.56-22.44-13.19-36.52.35-13.36,5.49-25.67,14.1-33.78,9.63-9.06,23.71-13.34,38.65-11.73,14.93,1.61,27.78,8.79,35.25,19.71.77,1.12,1.53,2.29,2.31,3.48,5.66,8.66,13.4,20.52,27.57,20.52h.05c9.48-.02,18.58-6.18,24.35-16.48,15.04-26.88,2.42-60.79-17.82-80.4-16.13-15.62-36.23-24.97-55.68-34.02Z"/>
</svg>