<?xml version="1.0" encoding="UTF-8"?>
<svg id="Layer_1" data-name="Layer 1" xmlns="http://www.w3.org/2000/svg" viewBox="0 0 6498 1080">
  <defs>
    <style>
      .cls-1 {
        fill: none;
        opacity: .8;
        stroke: #ff5900;
        stroke-miterlimit: 10;
        stroke-width: 44px;
      }
    </style>
  </defs>
  <path class="cls-1" d="M-36.87,559.61c32.19,49.67,111.12,44.51,157.22,7.39s69.58-94.55,97.9-146.53c43.81-80.38,103.06-152.31,173.57-210.69,44.06-36.48,124.79-59.53,146.45-6.59,18.33,44.79-31.64,84.67-59.21,124.46-43.21,62.37-29.21,155.2,25.81,207.46,55.02,52.26,142.8,63.1,212.32,32.7,64.07-28.02,142.14-85.12,191.77-35.86,22.94,22.77,24.79,58.44,28.9,90.5,18.82,146.77,119.84,280.23,255.99,338.19,53.76,22.89,122.34,32.11,165.51-7.26,63.08-57.52,23.12-160.51-15.65-236.57-27.75-54.46-53.6-114.66-42.99-174.86s73.62-114.36,130.97-93.19c63.18,23.32,70.39,107.04,83.53,173.09,31.78,159.7,167.85,293.37,328.1,322.3,16.56,2.99,33.82,4.92,50.06.53,37.07-10.03,58.49-50.77,60.63-89.11,3.81-68.25-38-129.94-80.37-183.59s-89.05-109.37-97.82-177.17c-8.77-67.8,41.52-147.72,109.51-140.59,19.98,2.1,38.68,11.33,54.83,23.28,58.06,42.97,93.54,123.98,165.06,134.11,24.61,3.48,49.84-2.73,72.25-13.49,65.16-31.26,106.07-97.06,137.52-162.12s58.22-134.56,108.5-186.47,133.07-81.37,196.13-46.07c16.94,9.48,32.59,25.48,32.63,44.89.05,29.29-32.25,45.61-56.41,62.17-80.24,54.99-94.23,184.63-27.58,255.47,61.8,65.68,178.26,65.23,242.53,3.67,13.55-12.98,31.12-21.07,49.85-22.01,50.49-2.52,102.42,20.69,132.21,61.84,26.75,36.95,35.32,83.51,50.68,126.46,49.58,138.69,181.82,242.62,326.83,263.88,44.36,6.51,85.32-24.9,90.14-69.48,13.69-126.64-100.91-277.5-60.91-410.09,3.36-11.14,8.04-22.31,16.46-30.35,30.26-28.89,79.33.13,108.21,30.4,51.52,53.99,96.69,114.04,134.28,178.51,42.62,73.12,86.04,159.63,148.54,210.65,47.31,38.62,118.59,10.91,127.72-49.46,10.68-70.62,2.86-144.11-23.53-210.51-16.9-42.52-41.24-82.85-48.29-128.07s9.64-98.99,52.23-115.72c39.71-15.59,83.4,6.17,120.45,27.32,55.02,31.4,113.22,66.12,140.58,123.25,13.28,27.73,24.19,53.16,42.02,78.21,17.83,25.05,29.43,60.12,52,81,156.58,144.83,293.81-90.2,233.05-221-32.56-70.1,78.14-133.44,122.39-196.81,18.05-25.85,37.37-51.98,64.27-68.41,32.23-19.68,72.07-23.21,109.59-18.91,17.99,2.06,37.32,6.68,48.65,20.81,17.16,21.38,7.5,54.36-10.85,74.73-18.35,20.37-43.55,33.32-63.21,52.43-28.63,27.82-43.5,66.52-57.01,104.09-18.19,50.59-35.1,108.3-10.75,156.23,26.03,51.24,91.11,71.05,148.33,65.72,57.22-5.33,110.61-29.92,166.02-45.18,40.34-11.11,87.35-16.1,120.64,9.24,40.66,30.96,41.5,90.1,52.85,139.93,15.95,70.06,59.09,131.63,111.65,180.61,52.56,48.98,104.59,119.58,176.38,122.51,49,2,97.62-11.3,122.71-49.62,25.09-38.32,29.06-87.31,21.57-132.49-10.32-62.26-40.29-119.24-69.17-175.36-12.39-24.08-24.94-49.26-25.6-76.34-1.08-44.76,34.59-86.74,78.48-95.55s91.54,14.43,114.1,53.1c16,27.43,19.99,59.97,29.22,90.36,30.37,99.9,115.01,171.62,182.14,251.58,28,33.36,54.14,69.58,90.63,93.37,36.49,23.78,87.26,32.2,122.75,6.95,16.98-12.08,28.56-30.41,36.96-49.48,28.36-64.47,22.76-142.79-14.5-202.55-23.7-38.02-58.37-67.63-90.43-98.92-32.06-31.29-62.88-66.41-75.32-109.45s-1.59-95.69,35.9-120.22c48.04-31.44,112.95-4.7,157.88,31.05,31.97,25.44,60.42,55.31,84.26,88.49,27.43,38.18,49.72,81.7,87.48,109.71,27.24,20.21,60.33,30.6,92.74,40.64,11.75,3.64,36.22,4.48,48.21,1.75s10.84-11.57,8.07-23.56"/>
</svg>