<?xml version="1.0" encoding="UTF-8"?>
<svg id="Layer_1" data-name="Layer 1" xmlns="http://www.w3.org/2000/svg" viewBox="0 0 1080 6451">
  <defs>
    <style>
      .cls-1 {
        fill: none;
        opacity: .56;
        stroke: #ff5900;
        stroke-miterlimit: 10;
        stroke-width: 44px;
      }
    </style>
  </defs>
  <path class="cls-1" d="M517.98-47.29c-49.67,32.19-44.51,111.12-7.39,157.22,37.12,46.1,94.55,69.58,146.53,97.9,80.38,43.81,152.31,103.06,210.69,173.57,36.48,44.06,59.53,124.79,6.59,146.45-44.79,18.33-84.67-31.64-124.46-59.21-62.37-43.21-155.2-29.21-207.46,25.81-52.26,55.02-63.1,142.8-32.7,212.32,28.02,64.07,85.12,142.14,35.86,191.77-22.77,22.94-58.44,24.79-90.5,28.9-146.77,18.82-280.23,119.84-338.19,255.99-22.89,53.76-32.11,122.34,7.26,165.51,57.52,63.08,160.51,23.12,236.57-15.65,54.46-27.75,114.66-53.6,174.86-42.99,60.2,10.61,114.36,73.62,93.19,130.97-23.32,63.18-107.04,70.39-173.09,83.53-159.7,31.78-293.37,167.85-322.3,328.1-2.99,16.56-4.92,33.82-.53,50.06,10.03,37.07,50.77,58.49,89.11,60.63,68.25,3.81,129.94-38,183.59-80.37s109.37-89.05,177.17-97.82c67.8-8.77,147.72,41.52,140.59,109.51-2.1,19.98-11.33,38.68-23.28,54.83-42.97,58.06-123.98,93.54-134.11,165.06-3.48,24.61,2.73,49.84,13.49,72.25,31.26,65.16,97.06,106.07,162.12,137.52s134.56,58.22,186.47,108.5,81.37,133.07,46.07,196.13c-9.48,16.94-25.48,32.59-44.89,32.63-29.29.05-45.61-32.25-62.17-56.41-54.99-80.24-184.63-94.23-255.47-27.58-65.68,61.8-65.23,178.26-3.67,242.53,12.98,13.55,21.07,31.12,22.01,49.85,2.52,50.49-20.69,102.42-61.84,132.21-36.95,26.75-83.51,35.32-126.46,50.68-138.69,49.58-242.62,181.82-263.88,326.83-6.51,44.36,24.9,85.32,69.48,90.14,126.64,13.69,277.5-100.91,410.09-60.91,11.14,3.36,22.31,8.04,30.35,16.46,28.89,30.26-.13,79.33-30.4,108.21-53.99,51.52-114.04,96.69-178.51,134.28-73.12,42.62-159.63,86.04-210.65,148.54-38.62,47.31-10.91,118.59,49.46,127.72,70.62,10.68,144.11,2.86,210.51-23.53,42.52-16.9,82.85-41.24,128.07-48.29s98.99,9.64,115.72,52.23c15.59,39.71-6.17,83.4-27.32,120.45-31.4,55.02-66.12,113.22-123.25,140.58-27.73,13.28-53.16,24.19-78.21,42.02-25.05,17.83-60.12,29.43-81,52-144.83,156.58,90.2,293.81,221,233.05,70.1-32.56,133.44,78.14,196.81,122.39,25.85,18.05,51.98,37.37,68.41,64.27,19.68,32.23,23.21,72.07,18.91,109.59-2.06,17.99-6.68,37.32-20.81,48.65-21.38,17.16-54.36,7.5-74.73-10.85-20.37-18.35-33.32-43.55-52.43-63.21-27.82-28.63-66.52-43.5-104.09-57.01-50.59-18.19-108.3-35.1-156.23-10.75-51.24,26.03-71.05,91.11-65.72,148.33,5.33,57.22,29.92,110.61,45.18,166.02,11.11,40.34,16.1,87.35-9.24,120.64-30.96,40.66-90.1,41.5-139.93,52.85-70.06,15.95-131.63,59.09-180.61,111.65-48.98,52.56-119.58,104.59-122.51,176.38-2,49,11.3,97.62,49.62,122.71,38.32,25.09,87.31,29.06,132.49,21.57,62.26-10.32,119.24-40.29,175.36-69.17,24.08-12.39,49.26-24.94,76.34-25.6,44.76-1.08,86.74,34.59,95.55,78.48,8.81,43.89-14.43,91.54-53.1,114.1-27.43,16-59.97,19.99-90.36,29.22-99.9,30.37-171.62,115.01-251.58,182.14-33.36,28-69.58,54.14-93.37,90.63-23.78,36.49-32.2,87.26-6.95,122.75,12.08,16.98,30.41,28.56,49.48,36.96,64.47,28.36,142.79,22.76,202.55-14.5,38.02-23.7,67.63-58.37,98.92-90.43,31.29-32.06,66.41-62.88,109.45-75.32,43.04-12.44,95.69-1.59,120.22,35.9,31.44,48.04,4.7,112.95-31.05,157.88-25.44,31.97-55.31,60.42-88.49,84.26-38.18,27.43-81.7,49.72-109.71,87.48-20.21,27.24-30.6,60.33-40.64,92.74-3.64,11.75-4.48,36.22-1.75,48.21,2.73,11.99,11.57,10.84,23.56,8.07"/>
</svg>