<svg width="954" height="172" viewBox="0 0 954 172" fill="none" xmlns="http://www.w3.org/2000/svg">
<path d="M54.6515 82.4795H51.5906C49.9632 82.4795 49.0333 83.3911 49.0333 85.0397V113.881C49.0333 123.287 44.132 136.282 37.3901 136.282C33.8061 136.282 31.8688 133.528 31.8688 129.533C31.8688 123.501 38.3006 115.006 39.2305 109.284C39.9474 104.881 38.4169 101.002 31.985 101.002C26.4637 101.002 19.315 106.122 14.1036 112.348C11.3526 115.626 9.5122 119.001 8.17546 122.783V85.0591C8.17546 83.4299 7.26492 82.4989 5.61821 82.4989H2.55725C0.929909 82.4989 0 83.4105 0 85.0591V159.188H8.17546V142.819C8.17546 133.509 10.1128 122.977 16.6609 115.51C21.6591 109.788 24.6232 108.256 28.091 108.256C30.842 108.256 32.4887 109.788 31.9656 113.473C31.2488 118.07 27.6842 122.667 27.6842 130.037C27.6842 137.407 32.3918 140.258 37.8938 140.258C42.0784 140.258 45.953 138.222 49.0333 135.041V159.169H57.2088V85.0397C57.2088 83.4105 56.2983 82.4795 54.6515 82.4795Z" fill="#F15B22"/>
<path d="M93.0494 75.6133C95.0836 75.6133 96.8272 73.8677 96.8272 71.7342C96.8272 69.6008 95.0836 67.9521 93.0494 67.9521C90.899 67.9521 89.1748 69.6977 89.1748 71.7342C89.1748 73.8871 90.9184 75.6133 93.0494 75.6133Z" fill="#F15B22"/>
<path d="M99.0715 80.833C78.536 80.833 65.3623 96.6791 65.3623 120.71C65.3623 144.741 78.536 160.8 99.0715 160.8C119.607 160.8 132.258 145.051 132.258 120.71C132.258 96.3687 119.278 80.833 99.0715 80.833ZM99.0715 156.204C84.1542 156.204 74.5645 142.51 74.5645 120.729C74.5645 98.9483 84.1736 85.4491 99.0715 85.4491C113.969 85.4491 123.075 99.1423 123.075 120.729C123.075 142.316 113.679 156.204 99.0715 156.204Z" fill="#F15B22"/>
<path d="M104.692 75.6133C106.726 75.6133 108.47 73.8677 108.47 71.7342C108.47 69.6008 106.726 67.9521 104.692 67.9521C102.542 67.9521 100.817 69.6977 100.817 71.7342C100.817 73.8871 102.561 75.6133 104.692 75.6133Z" fill="#F15B22"/>
<path d="M158.825 82.4795H155.764C154.137 82.4795 153.207 83.3911 153.207 85.0397V143.827C153.207 152.206 151.367 155.173 146.155 155.173C142.784 155.173 140.033 153.641 137.263 151.178C135.926 150.053 134.803 149.84 133.989 150.868C133.078 151.896 132.962 153.021 133.989 154.243C137.457 158.432 142.164 160.895 147.066 160.895C156.869 160.895 161.363 155.484 161.363 143.827V85.0397C161.363 83.4105 160.453 82.4795 158.806 82.4795H158.825Z" fill="#F15B22"/>
<path d="M179.555 99.8593C179.555 90.6659 185.793 84.9248 194.472 84.9248C206.735 84.9248 202.531 93.42 206.619 97.8034C209.273 100.674 212.547 100.965 215.395 98.2107C217.139 96.5815 217.429 92.2757 214.485 88.5906C210.61 83.7805 203.655 80.813 194.472 80.813C180.989 80.813 171.496 88.9978 171.496 101.372C171.496 126.431 211.54 117.742 211.54 140.531C211.54 149.841 204.701 156.688 196.022 156.688C187.943 156.688 177.734 150.249 178.664 136.032C178.761 133.782 177.443 133.569 175.506 134.596L170.701 137.157C169.481 137.777 169.578 139.193 169.675 140.939C170.701 157.095 183.875 160.78 194.588 160.78C209.293 160.78 220.122 150.249 220.122 138.088C220.122 114.367 179.574 119.371 179.574 99.8399L179.555 99.8593Z" fill="#F15B22"/>
<path d="M269.229 85.6428C270.662 83.8972 269.945 82.4813 267.795 82.4813H263.514C262.177 82.4813 261.266 82.9856 260.453 84.1105L235.423 120.302V85.0221C235.423 83.3929 234.512 82.4619 232.865 82.4619H229.804C228.177 82.4619 227.247 83.3735 227.247 85.0221V159.151H235.423V125.811L240.324 120.089L264.947 159.151H274.653L245.748 113.553L269.248 85.6428H269.229Z" fill="#F15B22"/>
<path d="M308.339 80.833C287.804 80.833 274.63 96.6791 274.63 120.71C274.63 144.741 287.804 160.8 308.339 160.8C328.875 160.8 341.525 145.051 341.525 120.71C341.525 96.3687 328.545 80.833 308.339 80.833ZM308.339 156.204C293.422 156.204 283.832 142.51 283.832 120.729C283.832 98.9483 293.441 85.4491 308.339 85.4491C323.237 85.4491 332.342 99.1423 332.342 120.729C332.342 142.316 322.946 156.204 308.339 156.204Z" fill="#F15B22"/>
<path d="M383.002 143.305C382.091 141.269 382.091 138.903 385.966 138.903C387.593 138.903 388.426 136.75 387.903 133.899C387.38 131.047 385.346 128.992 383.002 128.992C378.314 128.992 376.163 132.153 376.163 137.991C376.163 142.995 379.437 146.176 381.278 150.365C382.808 153.953 381.781 155.059 378.837 155.059L357.894 154.962V85.0221C357.894 83.3929 356.984 82.4619 355.337 82.4619H352.276C350.649 82.4619 349.719 83.3735 349.719 85.0221V156.591C349.719 158.026 350.842 159.151 352.276 159.151H388.949C390.577 159.151 391.293 156.281 389.86 154.438C388.329 152.402 384.745 147.184 383.021 143.286L383.002 143.305Z" fill="#F15B22"/>
<path d="M439.26 151.294L405.957 154.669V126.546C405.957 122.143 408.418 119.292 411.769 119.292C413.92 119.292 416.361 120.63 420.352 123.695C422.793 125.537 425.757 126.662 428.527 126.662C430.677 126.662 432.615 125.848 434.339 124.315C435.366 123.404 435.656 122.376 435.656 120.126V118.788C435.656 116.945 434.63 116.751 432.789 117.76C429.825 119.389 427.074 119.389 424.304 117.973C418.782 115.316 415.818 114.288 413.28 114.288C410.316 114.288 407.662 115.626 405.919 117.973V86.9986L438.097 90.3734C439.725 90.5868 440.848 89.6558 440.848 87.9102V85.0397C440.848 83.4105 439.938 82.4795 438.291 82.4795H400.3C398.673 82.4795 397.743 83.3911 397.743 85.0397V156.609C397.743 158.238 398.654 159.169 400.3 159.169H439.415C441.042 159.169 441.972 158.257 441.972 156.609V153.738C441.972 151.993 440.848 151.081 439.221 151.275L439.26 151.294Z" fill="#F15B22"/>
<path d="M502.505 82.4819H499.038C497.604 82.4819 496.577 83.1995 496.17 84.6348C494.136 92.6063 493.516 99.5693 493.516 106.823C493.516 118.79 497.507 129.729 497.507 142.414C497.507 156.32 492.199 156.728 488.925 156.728C485.457 156.728 481.776 155.195 479.529 149.163C475.848 139.039 480.866 122.979 484.023 105.815C486.678 90.7831 480.653 80.8721 468.699 80.8721C454.906 80.8721 450.217 90.5892 450.217 103.972C450.217 116.249 452.678 130.97 452.678 141.192C452.678 148.562 452.271 153.469 449.21 159.191H459.42C461.047 152.538 461.163 146.913 461.163 141.289C461.163 130.039 456.262 115.512 456.262 103.875C456.262 92.2378 458.916 85.1585 468.719 85.1585C479.548 85.1585 477.611 97.8431 475.151 108.064C470.346 127.693 469.435 141.192 473.717 151.937C476.681 159.404 484.023 160.839 488.925 160.839C495.57 160.839 504.443 156.844 504.443 139.369C504.443 127.402 501.692 118.305 501.692 107.463C501.692 99.0844 502.409 91.8111 504.656 85.3718C505.276 83.6262 504.346 82.5013 502.505 82.5013V82.4819Z" fill="#F15B22"/>
<path d="M544.267 80.833C533.747 80.833 526.289 87.0783 522.201 99.0259V85.0224C522.201 83.3932 521.29 82.4622 519.644 82.4622H516.583C514.955 82.4622 514.025 83.3738 514.025 85.0224V159.152H532.914C548.141 159.152 566.003 146.273 566.003 114.271C566.003 94.8365 558.952 80.833 544.247 80.833H544.267ZM533.747 155.079H522.201V117.044C522.201 99.2586 530.88 86.3607 542.93 86.3607C552.539 86.3607 557.847 98.2307 557.847 114.678C557.847 145.051 541.497 155.059 533.747 155.059V155.079Z" fill="#F15B22"/>
<path d="M933.782 113.106C910.766 120.709 896.876 106.434 899.259 83.4703C900.111 70.6499 902.32 57.9265 904.393 45.5716C908.054 27.7279 906.814 4.64733 885.136 0.535508C864.484 -3.09143 845.963 12.3085 834.998 28.5037C824.866 42.9339 819.965 59.3036 810.181 73.5786C790.072 103.215 762.33 79.3778 735.188 80.8131C710.506 81.2786 703.61 108.258 709.983 130.814C710.875 138.844 727.884 162.022 713.316 163.379C692.044 161.905 676.681 138.941 668.641 120.884C658.916 97.2992 652.445 76.3909 622.281 78.1947C618.271 78.5632 614.513 79.4748 611.723 80.8907C610.735 81.3756 609.786 82.0544 608.933 82.7914C608.313 83.6836 607.597 84.4982 606.763 85.1965C606.647 85.3322 606.512 85.4292 606.395 85.565L582.373 120.302V85.0219C582.373 83.3927 581.462 82.4617 579.815 82.4617H576.754C575.127 82.4617 574.197 83.3733 574.197 85.0219V159.151H582.373V125.81L587.274 120.089L611.897 159.151H621.603L592.699 113.553L611.994 90.6272C612.188 90.569 612.401 90.5108 612.595 90.4526C612.653 90.4138 612.711 90.3556 612.769 90.3169C612.905 90.2199 613.002 90.1229 613.137 90.0453C613.738 89.6574 614.338 89.3859 614.958 89.1919C615.21 89.0949 615.443 89.0174 615.694 88.9398C619.278 87.0196 623.424 86.205 627.667 86.7869C632.142 86.3214 636.579 86.8451 640.686 89.541C652.891 96.7561 656.959 116.772 664.147 130.271C673.794 149.783 693.71 173.62 717.326 171.913L717.636 171.855C736.428 167.743 725.908 148.135 720.464 136.187C715.757 124.55 713.354 109.79 720.251 98.6375C736.35 77.3413 763.395 97.6871 784.434 96.8531C799.875 97.2022 812.68 86.5153 819.868 73.5204C831.124 53.9311 838.524 29.648 858.033 15.7997C867.661 8.6234 883.14 4.39519 892.439 13.608C902.145 24.6246 896.12 42.9339 894.435 56.5494C892.401 74.6841 885.504 99.5879 898.736 114.154C912.374 129.379 945.89 124.569 953.988 107.23C954.511 101.663 937.54 112.466 933.782 113.087V113.106Z" fill="#F15B22"/>
</svg>
