<svg width="50" height="50" viewBox="0 0 50 50" fill="none" xmlns="http://www.w3.org/2000/svg">
<path d="M0 8C0 3.58172 3.58172 0 8 0H42C46.4183 0 50 3.58172 50 8V42C50 46.4183 46.4183 50 42 50H8C3.58172 50 0 46.4183 0 42V8Z" fill="#FFFDF4"/>
<path d="M0 8C0 3.58172 3.58172 0 8 0H42C46.4183 0 50 3.58172 50 8V42C50 46.4183 46.4183 50 42 50H8C3.58172 50 0 46.4183 0 42V8Z" fill="#FFFDF4"/>
<line x1="12.7188" y1="14.625" x2="37.2812" y2="14.625" stroke="#FF5E04" stroke-width="2" stroke-linecap="round"/>
<line x1="12.7188" y1="24" x2="37.2812" y2="24" stroke="#FF5E04" stroke-width="2" stroke-linecap="round"/>
<line x1="12.7188" y1="33.375" x2="37.2812" y2="33.375" stroke="#FF5E04" stroke-width="2" stroke-linecap="round"/>
</svg>
