<svg width="50" height="50" viewBox="0 0 50 50" fill="none" xmlns="http://www.w3.org/2000/svg">
<path d="M26.6818 31.5455V32.0455H27.1818H30.8182C31.496 32.0455 32.0455 31.496 32.0455 30.8182V19.1818C32.0455 18.504 31.496 17.9545 30.8182 17.9545H19.1818C18.504 17.9545 17.9545 18.504 17.9545 19.1818V30.8182C17.9545 31.496 18.504 32.0455 19.1818 32.0455H25H25.5V31.5455V26.4545V25.9545H25H23.5455C23.4199 25.9545 23.3182 25.8527 23.3182 25.7272V24.9999C23.3182 24.8744 23.4199 24.7727 23.5455 24.7727H25H25.5V24.2727V22.4545C25.5 21.6876 26.3166 20.6076 27.9091 20.6076L27.9092 20.6076L27.9141 20.6076L27.9378 20.608C27.9595 20.6084 27.9928 20.6093 28.0363 20.6111C28.1233 20.6147 28.2506 20.622 28.4067 20.6368C28.72 20.6665 29.1421 20.7256 29.5844 20.8422C29.5845 20.8423 29.5847 20.8425 29.5849 20.8428C29.5873 20.8461 29.5909 20.8536 29.5909 20.8647V21.3636C29.5909 21.4891 29.4892 21.5909 29.3636 21.5909H27.9091C27.5647 21.5909 27.2621 21.758 27.0555 21.9646C26.849 22.1711 26.6818 22.4737 26.6818 22.8181V24.2727V24.7727H27.1818H29.1865C29.2175 24.7727 29.2394 24.803 29.2296 24.8325L28.9074 25.799C28.8764 25.8919 28.7895 25.9545 28.6918 25.9545H27.1818H26.6818V26.4545V31.5455ZM30.8182 17.5C31.7471 17.5 32.5 18.253 32.5 19.1818V30.8182C32.5 31.7471 31.7471 32.5 30.8182 32.5H19.1818C18.253 32.5 17.5 31.7471 17.5 30.8182V19.1818C17.5 18.253 18.253 17.5 19.1818 17.5H30.8182Z" stroke="#FF5E04"/>
<rect x="0.5" y="0.5" width="49" height="49" rx="9.5" stroke="#FF5E04"/>
</svg>
