<?xml version="1.0" encoding="UTF-8"?>
<svg id="Layer_2" xmlns="http://www.w3.org/2000/svg" viewBox="0 0 67.14 110.46">
  <defs>
    <style>
      .cls-1 {
        fill: none;
        stroke: #f15c24;
        stroke-miterlimit: 10;
        stroke-width: 3px;
      }
    </style>
  </defs>
  <g id="Layer_8">
    <g>
      <rect class="cls-1" x="4.9" y="61.08" width="60.73" height="10" rx="1.43" ry="1.43"/>
      <path class="cls-1" d="M12.02,71.08h47.05v36.08c0,.99-.81,1.8-1.8,1.8H13.82c-.99,0-1.8-.81-1.8-1.8v-36.08h0Z"/>
      <line class="cls-1" x1="35.04" y1="25.93" x2="35.27" y2="60.56"/>
      <path class="cls-1" d="M35.12,26.7c-.5-1.76-1.71-6.93.59-12.69,1.49-3.73,3.82-6.13,5.22-7.35,1.9-1.4,5.67-3.78,11.03-4.74,5.76-1.03,10.42.11,12.69.83.11.82,1.41,12.24-7.59,19.93-9.55,8.15-21.44,4.21-21.94,4.03Z"/>
      <path class="cls-1" d="M34.18,40.81c.24-1.81.7-7.1-2.41-12.48-2.01-3.48-4.66-5.52-6.22-6.53-2.08-1.11-6.15-2.93-11.6-3.12-5.85-.2-10.3,1.6-12.44,2.64.01.83.36,12.32,10.37,18.64,10.62,6.7,21.83,1.09,22.3.85Z"/>
      <line class="cls-1" x1="20.25" y1="30.96" x2="34.3" y2="39.54"/>
      <line class="cls-1" x1="49.57" y1="14.66" x2="35.55" y2="26.15"/>
    </g>
  </g>
</svg>