<?xml version="1.0" encoding="UTF-8"?>
<svg id="Layer_2" xmlns="http://www.w3.org/2000/svg" viewBox="0 0 140.91 91.75">
  <defs>
    <style>
      .cls-1 {
        fill: none;
        stroke: #f15c24;
        stroke-miterlimit: 10;
        stroke-width: 2px;
      }
    </style>
  </defs>
  <g id="Layer_7">
    <g>
      <circle class="cls-1" cx="70.17" cy="23.2" r="22.2"/>
      <path class="cls-1" d="M116.02,74.59c-4.59,15.3-38.28,15.99-44.99,16.12-6.39.13-40.24.79-46.02-15.05-1.27-3.47-.88-6.89-.28-9.38.92-2.96,2.99-8.18,7.69-13.03,7.07-7.3,15.54-9.07,18.58-9.56,2.94,1.69,9.35,4.84,18.05,4.94,9.77.12,16.89-3.68,19.78-5.44,2.27.39,16.86,3.16,23.98,16.32,1.75,3.23,4.98,9.19,3.21,15.08Z"/>
      <circle class="cls-1" cx="111.09" cy="15.83" r="13.36"/>
      <path class="cls-1" d="M120.43,58.85c-2.14-3.37-5.83-8.3-11.7-12.85-5.78-4.49-11.39-6.83-15.16-8.08,1.32-2.58,2.64-5.16,3.96-7.75,1.36,1.14,5.69,4.48,12.2,4.78,7.34.34,12.4-3.44,13.68-4.45,1.64.17,4.19.64,6.95,2.07,1.68.87,5.47,2.9,7.72,7.32.49.96,3.2,6.56.99,11.7-2.45,5.68-10.19,9.13-18.62,7.25Z"/>
      <circle class="cls-1" cx="29.82" cy="15.83" r="13.36"/>
      <path class="cls-1" d="M20.48,58.85c2.14-3.37,5.83-8.3,11.7-12.85,5.78-4.49,11.39-6.83,15.16-8.08-1.32-2.58-2.64-5.16-3.96-7.75-1.36,1.14-5.69,4.48-12.2,4.78-7.34.34-12.4-3.44-13.68-4.45-1.64.17-4.19.64-6.95,2.07-1.68.87-5.47,2.9-7.72,7.32-.49.96-3.2,6.56-.99,11.7,2.45,5.68,10.19,9.13,18.62,7.25Z"/>
    </g>
  </g>
</svg>