<svg width="50" height="50" viewBox="0 0 50 50" fill="none" xmlns="http://www.w3.org/2000/svg">
<path d="M17.5 20.2C17.5 18.7088 18.7088 17.5 20.2 17.5H29.8C31.2911 17.5 32.5 18.7088 32.5 20.2V29.8C32.5 31.2911 31.2911 32.5 29.8 32.5H20.2C18.7088 32.5 17.5 31.2911 17.5 29.8V20.2ZM20.2 18.1C19.0402 18.1 18.1 19.0402 18.1 20.2V29.8C18.1 30.9598 19.0402 31.9 20.2 31.9H29.8C30.9598 31.9 31.9 30.9598 31.9 29.8V20.2C31.9 19.0402 30.9598 18.1 29.8 18.1H20.2ZM25 22.1C23.3983 22.1 22.1 23.3983 22.1 25C22.1 26.6017 23.3983 27.9 25 27.9C26.6017 27.9 27.9 26.6017 27.9 25C27.9 23.3983 26.6017 22.1 25 22.1ZM21.5 25C21.5 23.067 23.067 21.5 25 21.5C26.933 21.5 28.5 23.067 28.5 25C28.5 26.933 26.933 28.5 25 28.5C23.067 28.5 21.5 26.933 21.5 25ZM30.1 20.6C30.1 20.9866 29.7866 21.3 29.4 21.3C29.0134 21.3 28.7 20.9866 28.7 20.6C28.7 20.2134 29.0134 19.9 29.4 19.9C29.7866 19.9 30.1 20.2134 30.1 20.6Z" stroke="#FF5E04"/>
<rect x="0.5" y="0.5" width="49" height="49" rx="9.5" stroke="#FF5E04"/>
</svg>
