<?xml version="1.0" encoding="UTF-8"?>
<svg id="Layer_2" xmlns="http://www.w3.org/2000/svg" viewBox="0 0 123.37 108.8">
  <defs>
    <style>
      .cls-1, .cls-2, .cls-3 {
        fill: none;
        stroke: #f15c24;
        stroke-miterlimit: 10;
      }

      .cls-2 {
        stroke-dasharray: 10;
        stroke-width: 2px;
      }

      .cls-3 {
        stroke-width: 3px;
      }

      .cls-4 {
        fill: #f15c24;
      }
    </style>
  </defs>
  <g id="Layer_9">
    <g>
      <path class="cls-4" d="M101.37,43.06c-3.32-5.53-6.65-11.06-9.97-16.6,6.68-.03,13.36-.07,20.04-.1-3.36,5.57-6.71,11.13-10.07,16.7Z"/>
      <path class="cls-4" d="M101.38,6.16c-6.96,0-12.61,5.64-12.61,12.61s5.64,12.61,12.61,12.61,12.61-5.64,12.61-12.61-5.64-12.61-12.61-12.61ZM101.41,25.28c-3.48,0-6.3-2.82-6.3-6.3s2.82-6.3,6.3-6.3,6.3,2.82,6.3,6.3-2.82,6.3-6.3,6.3Z"/>
      <line class="cls-1" x1="40.58" y1="9.37" x2="38.67" y2="107.28"/>
      <line class="cls-1" x1="81.36" y1="1.51" x2="80.8" y2="96.93"/>
      <line class="cls-1" x1="18.86" y1="79.41" x2="26.77" y2="71.99"/>
      <line class="cls-1" x1="19.15" y1="71.82" x2="26.29" y2="79.43"/>
      <path class="cls-2" d="M22.75,70.07s-2.55-10.43,37.17-11.75,41.49-12.04,41.49-12.04"/>
      <path class="cls-3" d="M121.87,102.07c-14.07-1.31-28.14-2.62-42.21-3.93-13.66,3.04-27.33,6.09-40.99,9.13-12.39-1.73-24.78-3.47-37.17-5.2V3.63c13.03,1.91,26.05,3.82,39.08,5.73,13.59-2.62,27.19-5.24,40.78-7.86l40.51,2.12v98.44Z"/>
    </g>
  </g>
</svg>