<?xml version="1.0" encoding="UTF-8"?>
<svg id="Layer_2" xmlns="http://www.w3.org/2000/svg" viewBox="0 0 144.49 108.71">
  <defs>
    <style>
      .cls-1 {
        fill: none;
        stroke: #f15c24;
        stroke-miterlimit: 10;
        stroke-width: 2px;
      }

      .cls-2 {
        fill: #f15c24;
      }
    </style>
  </defs>
  <g id="Layer_5">
    <g>
      <path class="cls-1" d="M60.17,28.99c-5.9-2.21-13.87-5.92-22.14-12.2-7.13-5.42-12.29-11.08-15.85-15.64-3.04.86-9.66,3.22-14.83,9.54C-2.62,22.87,2.02,38.56,2.46,39.97c6.1-.59,13.49-.8,21.79,0,11.5,1.11,21.07,3.82,28.24,6.45-.34-.98-1.72-5.29.35-10.11,2.13-4.97,6.4-6.93,7.32-7.32Z"/>
      <g>
        <path class="cls-1" d="M138.04,54.65c-10.69-1.4-23.04-3.79-36.44-7.85-9.63-2.92-18.27-6.23-25.86-9.58-1.32.25-4.34,1.03-6.61,3.66-3.13,3.63-3.53,9.28-1.01,14.29,4.63,2.82,9.67,6.31,14.82,10.63,9.99,8.38,17.15,17.14,22.14,24.41-.31-1.72-2.41-14.46,6.62-25.1,10.07-11.86,25.02-10.59,26.32-10.46Z"/>
        <path class="cls-1" d="M104.71,86.89s-.58,10.39,14.06,10.47c14.64.09,34.43-20.31,19.26-29.11-7.58-4.4-13.23-2.96-16.41.19s-3.9,8.01-1.63,10.45c4.53,4.88,12.03,3.23,11.51-1.05,0,0-8.26-7.81-9.87-9.4"/>
        <path class="cls-1" d="M122.49,57.2c9.15,6.57,14.3,10.28,14.3,10.28"/>
        <path class="cls-1" d="M107.21,72.38c10.16,5.77,15.88,9.03,15.88,9.03"/>
      </g>
      <path class="cls-2" d="M76.62,35.85c.83,2.03-8.09,1.43-8.53,8.33-.26,4.09-.31,5.33.7,8.83s-18-3.18-17.02-10.18c.49-3.47,1.39-7.33,3.57-9.99s5.78-5.49,8.83-5.14c7.32.83,10.5,3.4,12.44,8.16Z"/>
      <path class="cls-2" d="M51.73,46.14s-19.26,16.42-37.63,13.05l11.39,4.91s-4.18,6.6-8.14,8.11c0,0,10.23,3.99,21.15-1.2,10.93-5.19,14.88-8.67,14.88-8.67,0,0,6.04,27.19-8.37,36.6,0,0,8.48-3.7,13.48-2.96,0,0,3.45,8.42,1.67,12.72,0,0,11.93-13.53,10.19-31.75-1.74-18.22-1.57-23.95-1.57-23.95"/>
    </g>
  </g>
</svg>