<svg width="50" height="50" viewBox="0 0 50 50" fill="none" xmlns="http://www.w3.org/2000/svg">
<path d="M21.5881 21.0001C21.5881 21.3264 21.3235 21.591 20.9972 21.591C20.6708 21.591 20.4062 21.3264 20.4062 21.0001C20.4062 20.6737 20.6708 20.4092 20.9972 20.4092C21.3235 20.4092 21.5881 20.6737 21.5881 21.0001Z" stroke="#FF5E04"/>
<path d="M20.4062 23.5456C20.4062 23.4201 20.508 23.3184 20.6335 23.3184H21.3608C21.4863 23.3184 21.5881 23.4201 21.5881 23.5456V29.3638C21.5881 29.4893 21.4863 29.5911 21.3608 29.5911H20.6335C20.508 29.5911 20.4062 29.4893 20.4062 29.3638V23.5456Z" stroke="#FF5E04"/>
<path d="M25.2287 23.9093L26.2004 24.067C26.2029 24.0678 26.2029 24.0679 26.2029 24.0679L26.2027 24.0684L26.2024 24.0694L26.2018 24.0711L26.201 24.0733C26.2008 24.0739 26.2007 24.0742 26.2007 24.0742C26.2007 24.0743 26.2007 24.0741 26.2009 24.0737C26.2014 24.0722 26.2034 24.0672 26.2067 24.0594C26.2135 24.0435 26.226 24.0164 26.2453 23.9816C26.2842 23.9116 26.3485 23.8148 26.4459 23.7174C26.6312 23.5321 26.9609 23.3184 27.5469 23.3184C28.1979 23.3184 28.7121 23.4818 29.0527 23.7542C29.3783 24.0147 29.5923 24.411 29.5923 25.0002V29.3638C29.5923 29.4893 29.4906 29.5911 29.3651 29.5911H28.6378C28.512 29.5911 28.4105 29.4894 28.4105 29.3641V25.7275C28.4105 25.2265 28.2117 24.8129 27.8215 24.5853C27.4648 24.3773 27.045 24.383 26.6983 24.4697C26.3436 24.5583 25.9915 24.7481 25.7211 25.011C25.4512 25.2734 25.2287 25.6449 25.2287 26.0911V29.3638C25.2287 29.4893 25.127 29.5911 25.0014 29.5911H24.2741C24.1486 29.5911 24.0469 29.4893 24.0469 29.3638V23.5456C24.0469 23.4201 24.1486 23.3184 24.2741 23.3184H25.0014C25.1269 23.3184 25.2287 23.4201 25.2287 23.5456V23.9093Z" stroke="#FF5E04"/>
<path d="M30.8182 17.5C31.7471 17.5 32.5 18.253 32.5 19.1818V30.8182C32.5 31.7471 31.7471 32.5 30.8182 32.5H19.1818C18.253 32.5 17.5 31.7471 17.5 30.8182V19.1818C17.5 18.253 18.253 17.5 19.1818 17.5H30.8182ZM32.0455 19.1818C32.0455 18.504 31.496 17.9545 30.8182 17.9545H19.1818C18.504 17.9545 17.9545 18.504 17.9545 19.1818V30.8182C17.9545 31.496 18.504 32.0455 19.1818 32.0455H30.8182C31.496 32.0455 32.0455 31.496 32.0455 30.8182V19.1818Z" stroke="#FF5E04"/>
<rect x="0.5" y="0.5" width="49" height="49" rx="9.5" stroke="#FF5E04"/>
</svg>
