<svg width="155" height="28" viewBox="0 0 155 28" fill="none" xmlns="http://www.w3.org/2000/svg">
<path d="M8.82423 13.3022H8.33C8.06724 13.3022 7.9171 13.4493 7.9171 13.7151V18.3666C7.9171 19.8837 7.1257 21.9795 6.03714 21.9795C5.45845 21.9795 5.14564 21.5353 5.14564 20.8909C5.14564 19.9181 6.18416 18.548 6.3343 17.6252C6.45004 16.9151 6.20293 16.2895 5.16441 16.2895C4.27292 16.2895 3.11867 17.1153 2.27722 18.1194C1.83304 18.6481 1.53587 19.1924 1.32004 19.8023V13.7183C1.32004 13.4555 1.17302 13.3054 0.907135 13.3054H0.412903C0.150146 13.3054 0 13.4524 0 13.7183V25.6737H1.32004V23.0336C1.32004 21.5321 1.63284 19.8336 2.69012 18.6293C3.49716 17.7065 3.97575 17.4594 4.53568 17.4594C4.97986 17.4594 5.24574 17.7065 5.16129 18.3009C5.04555 19.0422 4.46999 19.7836 4.46999 20.9722C4.46999 22.1609 5.2301 22.6207 6.11847 22.6207C6.79413 22.6207 7.41974 22.2923 7.9171 21.7793V25.6706H9.23714V13.7151C9.23714 13.4524 9.09012 13.3022 8.82423 13.3022Z" fill="#F15B22"/>
<path d="M15.024 12.1946C15.3525 12.1946 15.634 11.913 15.634 11.569C15.634 11.2249 15.3525 10.959 15.024 10.959C14.6768 10.959 14.3984 11.2405 14.3984 11.569C14.3984 11.9162 14.68 12.1946 15.024 12.1946Z" fill="#F15B22"/>
<path d="M15.9965 13.0366C12.6808 13.0366 10.5537 15.5922 10.5537 19.4679C10.5537 23.3436 12.6808 25.9336 15.9965 25.9336C19.3123 25.9336 21.3549 23.3936 21.3549 19.4679C21.3549 15.5422 19.2591 13.0366 15.9965 13.0366ZM15.9965 25.1922C13.5879 25.1922 12.0395 22.9838 12.0395 19.471C12.0395 15.9582 13.591 13.7811 15.9965 13.7811C18.402 13.7811 19.8722 15.9895 19.8722 19.471C19.8722 22.9525 18.3551 25.1922 15.9965 25.1922Z" fill="#F15B22"/>
<path d="M16.9039 12.1946C17.2324 12.1946 17.5139 11.913 17.5139 11.569C17.5139 11.2249 17.2324 10.959 16.9039 10.959C16.5567 10.959 16.2783 11.2405 16.2783 11.569C16.2783 11.9162 16.5598 12.1946 16.9039 12.1946Z" fill="#F15B22"/>
<path d="M25.6442 13.3022H25.1499C24.8872 13.3022 24.737 13.4493 24.737 13.7151V23.1963C24.737 24.5476 24.4399 25.0262 23.5984 25.0262C23.0541 25.0262 22.61 24.7791 22.1627 24.3818C21.9468 24.2004 21.7654 24.166 21.634 24.3318C21.487 24.4975 21.4682 24.679 21.634 24.876C22.1939 25.5517 22.954 25.949 23.7454 25.949C25.3282 25.949 26.0539 25.0762 26.0539 23.1963V13.7151C26.0539 13.4524 25.9069 13.3022 25.641 13.3022H25.6442Z" fill="#F15B22"/>
<path d="M28.9915 16.1049C28.9915 14.6223 29.9987 13.6964 31.4001 13.6964C33.3801 13.6964 32.7014 15.0664 33.3614 15.7734C33.7899 16.2363 34.3186 16.2832 34.7784 15.8391C35.0599 15.5763 35.1068 14.8819 34.6314 14.2876C34.0058 13.5118 32.8828 13.0332 31.4001 13.0332C29.223 13.0332 27.6902 14.3532 27.6902 16.3489C27.6902 20.3904 34.1559 18.989 34.1559 22.6645C34.1559 24.1659 33.0517 25.2701 31.6503 25.2701C30.3459 25.2701 28.6974 24.2316 28.8476 21.9388C28.8632 21.5759 28.6505 21.5415 28.3377 21.7073L27.562 22.1202C27.3649 22.2203 27.3805 22.4486 27.3962 22.7302C27.562 25.3358 29.689 25.9302 31.4189 25.9302C33.793 25.9302 35.5416 24.2316 35.5416 22.2703C35.5416 18.4447 28.9946 19.2518 28.9946 16.1018L28.9915 16.1049Z" fill="#F15B22"/>
<path d="M43.4709 13.8123C43.7023 13.5308 43.5866 13.3024 43.2394 13.3024H42.5481C42.3323 13.3024 42.1852 13.3838 42.0539 13.5652L38.0124 19.4021V13.7122C38.0124 13.4495 37.8654 13.2993 37.5995 13.2993H37.1053C36.8425 13.2993 36.6924 13.4463 36.6924 13.7122V25.6676H38.0124V20.2905L38.8038 19.3677L42.7796 25.6676H44.3467L39.6797 18.3136L43.474 13.8123H43.4709Z" fill="#F15B22"/>
<path d="M49.7856 13.0366C46.4699 13.0366 44.3428 15.5922 44.3428 19.4679C44.3428 23.3436 46.4699 25.9336 49.7856 25.9336C53.1013 25.9336 55.1439 23.3936 55.1439 19.4679C55.1439 15.5422 53.0481 13.0366 49.7856 13.0366ZM49.7856 25.1922C47.377 25.1922 45.8286 22.9838 45.8286 19.471C45.8286 15.9582 47.3801 13.7811 49.7856 13.7811C52.1911 13.7811 53.6612 15.9895 53.6612 19.471C53.6612 22.9525 52.1441 25.1922 49.7856 25.1922Z" fill="#F15B22"/>
<path d="M61.8408 23.112C61.6938 22.7836 61.6938 22.4019 62.3194 22.4019C62.5821 22.4019 62.7167 22.0547 62.6322 21.5949C62.5477 21.1351 62.2193 20.8035 61.8408 20.8035C61.0838 20.8035 60.7366 21.3134 60.7366 22.2549C60.7366 23.062 61.2652 23.575 61.5624 24.2506C61.8095 24.8293 61.6437 25.0076 61.1683 25.0076L57.7868 24.992V13.7122C57.7868 13.4495 57.6398 13.2993 57.3739 13.2993H56.8797C56.6169 13.2993 56.4668 13.4463 56.4668 13.7122V25.2547C56.4668 25.4862 56.6482 25.6676 56.8797 25.6676H62.8011C63.0639 25.6676 63.1796 25.2047 62.9481 24.9075C62.701 24.5791 62.1223 23.7376 61.8439 23.1089L61.8408 23.112Z" fill="#F15B22"/>
<path d="M70.9241 24.4006L65.547 24.9449V20.4092C65.547 19.6991 65.9443 19.2393 66.4854 19.2393C66.8326 19.2393 67.2268 19.4551 67.8711 19.9494C68.2653 20.2465 68.7439 20.4279 69.1912 20.4279C69.5384 20.4279 69.8512 20.2966 70.1296 20.0495C70.2954 19.9024 70.3423 19.7366 70.3423 19.3738V19.158C70.3423 18.8608 70.1765 18.8295 69.8793 18.9922C69.4008 19.2549 68.9566 19.2549 68.5093 19.0266C67.6178 18.598 67.1392 18.4323 66.7294 18.4323C66.2508 18.4323 65.8223 18.6481 65.5407 19.0266V14.0311L70.7364 14.5754C70.9992 14.6098 71.1806 14.4596 71.1806 14.1781V13.7151C71.1806 13.4524 71.0336 13.3022 70.7677 13.3022H64.6336C64.3709 13.3022 64.2207 13.4493 64.2207 13.7151V25.2577C64.2207 25.5204 64.3677 25.6706 64.6336 25.6706H70.9491C71.2119 25.6706 71.3621 25.5235 71.3621 25.2577V24.7947C71.3621 24.5132 71.1806 24.3662 70.9179 24.3974L70.9241 24.4006Z" fill="#F15B22"/>
<path d="M81.1365 13.3026H80.5766C80.3451 13.3026 80.1793 13.4183 80.1136 13.6498C79.7852 14.9354 79.6851 16.0584 79.6851 17.2283C79.6851 19.1583 80.3295 20.9225 80.3295 22.9683C80.3295 25.2111 79.4724 25.2768 78.9438 25.2768C78.3838 25.2768 77.7895 25.0297 77.4266 24.0568C76.8323 22.424 77.6425 19.834 78.1524 17.0656C78.5809 14.6414 77.6081 13.043 75.6781 13.043C73.4509 13.043 72.6939 14.6101 72.6939 16.7685C72.6939 18.7485 73.0912 21.1227 73.0912 22.7712C73.0912 23.9599 73.0255 24.7513 72.5312 25.674H74.1797C74.4425 24.6011 74.4613 23.694 74.4613 22.7868C74.4613 20.9726 73.6699 18.6297 73.6699 16.7528C73.6699 14.876 74.0984 13.7343 75.6812 13.7343C77.4298 13.7343 77.117 15.78 76.7197 17.4285C75.944 20.5941 75.7969 22.7712 76.4882 24.5042C76.9668 25.7085 78.1524 25.9399 78.9438 25.9399C80.0167 25.9399 81.4493 25.2955 81.4493 22.4772C81.4493 20.5472 81.0051 19.0801 81.0051 17.3315C81.0051 15.9802 81.1209 14.8072 81.4837 13.7687C81.5838 13.4872 81.4337 13.3057 81.1365 13.3057V13.3026Z" fill="#F15B22"/>
<path d="M87.879 13.0366C86.1805 13.0366 84.9762 14.0439 84.3161 15.9707V13.7123C84.3161 13.4495 84.1691 13.2994 83.9032 13.2994H83.409C83.1462 13.2994 82.9961 13.4464 82.9961 13.7123V25.6677H86.0459C88.5046 25.6677 91.3887 23.5907 91.3887 18.4294C91.3887 15.2951 90.25 13.0366 87.8759 13.0366H87.879ZM86.1805 25.0108H84.3161V18.8767C84.3161 16.0083 85.7175 13.9281 87.6632 13.9281C89.2147 13.9281 90.0718 15.8425 90.0718 18.4951C90.0718 23.3936 87.4317 25.0077 86.1805 25.0077V25.0108Z" fill="#F15B22"/>
<path d="M150.772 18.2416C147.056 19.4678 144.813 17.1655 145.197 13.4619C145.335 11.3943 145.692 9.34227 146.026 7.3497C146.618 4.47189 146.417 0.749513 142.917 0.0863656C139.583 -0.49858 136.592 1.98509 134.822 4.59702C133.186 6.92429 132.394 9.56436 130.815 11.8666C127.568 16.6463 123.088 12.8019 118.706 13.0334C114.721 13.1084 113.607 17.4596 114.636 21.0975C114.78 22.3925 117.527 26.1305 115.174 26.3495C111.74 26.1118 109.259 22.4081 107.961 19.4959C106.391 15.6922 105.346 12.3202 100.476 12.6111C99.8282 12.6705 99.2214 12.8175 98.7709 13.0459C98.6114 13.1241 98.4581 13.2336 98.3205 13.3524C98.2204 13.4963 98.1047 13.6277 97.9702 13.7403C97.9514 13.7622 97.9295 13.7778 97.9107 13.7997L94.0319 19.4021V13.7122C94.0319 13.4494 93.8849 13.2993 93.619 13.2993H93.1248C92.8621 13.2993 92.7119 13.4463 92.7119 13.7122V25.6676H94.0319V20.2905L94.8233 19.3677L98.7991 25.6676H100.366L95.6992 18.3135L98.8147 14.6162C98.846 14.6068 98.8804 14.5974 98.9117 14.588C98.9211 14.5818 98.9305 14.5724 98.9399 14.5661C98.9618 14.5505 98.9774 14.5348 98.9993 14.5223C99.0963 14.4598 99.1932 14.416 99.2933 14.3847C99.334 14.369 99.3715 14.3565 99.4122 14.344C99.9909 14.0343 100.66 13.903 101.345 13.9968C102.068 13.9217 102.784 14.0062 103.447 14.441C105.418 15.6046 106.075 18.8328 107.235 21.0099C108.793 24.1567 112.009 28.0011 115.822 27.7258L115.872 27.7164C118.906 27.0533 117.208 23.8908 116.329 21.964C115.569 20.0871 115.181 17.7067 116.294 15.9081C118.894 12.4735 123.26 15.7548 126.658 15.6203C129.151 15.6766 131.218 13.953 132.379 11.8572C134.196 8.69789 135.391 4.78157 138.541 2.54814C140.096 1.39076 142.595 0.708847 144.096 2.19467C145.664 3.97141 144.691 6.92429 144.419 9.12018C144.09 12.0449 142.977 16.0613 145.113 18.4105C147.315 20.866 152.727 20.0903 154.034 17.2938C154.119 16.396 151.379 18.1384 150.772 18.2384V18.2416Z" fill="#F15B22"/>
</svg>
