<?xml version="1.0" encoding="UTF-8"?>
<svg id="Layer_1" data-name="Layer 1" xmlns="http://www.w3.org/2000/svg" viewBox="0 0 612 792">
  <defs>
    <style>
      .cls-1 {
        fill: #f15b22;
      }
    </style>
  </defs>
  <path class="cls-1" d="M117.46,99.82h-1.58c-.84,0-1.32.47-1.32,1.32v14.87c0,4.85-2.53,11.55-6.01,11.55-1.85,0-2.85-1.42-2.85-3.48,0-3.11,3.32-7.49,3.8-10.44.37-2.27-.42-4.27-3.74-4.27-2.85,0-6.54,2.64-9.23,5.85-1.42,1.69-2.37,3.43-3.06,5.38v-19.45c0-.84-.47-1.32-1.32-1.32h-1.58c-.84,0-1.32.47-1.32,1.32v38.22h4.22v-8.44c0-4.8,1-10.23,4.38-14.08,2.58-2.95,4.11-3.74,5.9-3.74,1.42,0,2.27.79,2,2.69-.37,2.37-2.21,4.74-2.21,8.54s2.43,5.27,5.27,5.27c2.16,0,4.16-1.05,5.75-2.69v12.44h4.22v-38.22c0-.84-.47-1.32-1.32-1.32Z"/>
  <path class="cls-1" d="M137.28,96.28c1.05,0,1.95-.9,1.95-2s-.9-1.95-1.95-1.95c-1.11,0-2,.9-2,1.95,0,1.11.9,2,2,2Z"/>
  <path class="cls-1" d="M140.39,98.97c-10.6,0-17.4,8.17-17.4,20.56s6.8,20.67,17.4,20.67,17.13-8.12,17.13-20.67-6.7-20.56-17.13-20.56ZM140.39,137.83c-7.7,0-12.65-7.06-12.65-18.29s4.96-18.19,12.65-18.19,12.39,7.06,12.39,18.19-4.85,18.29-12.39,18.29Z"/>
  <path class="cls-1" d="M143.29,96.28c1.05,0,1.95-.9,1.95-2s-.9-1.95-1.95-1.95c-1.11,0-2,.9-2,1.95,0,1.11.9,2,2,2Z"/>
  <path class="cls-1" d="M171.23,99.82h-1.58c-.84,0-1.32.47-1.32,1.32v30.31c0,4.32-.95,5.85-3.64,5.85-1.74,0-3.16-.79-4.59-2.06-.69-.58-1.27-.69-1.69-.16-.47.53-.53,1.11,0,1.74,1.79,2.16,4.22,3.43,6.75,3.43,5.06,0,7.38-2.79,7.38-8.8v-30.31c0-.84-.47-1.32-1.32-1.32Z"/>
  <path class="cls-1" d="M181.93,108.78c0-4.74,3.22-7.7,7.7-7.7,6.33,0,4.16,4.38,6.27,6.64,1.37,1.48,3.06,1.63,4.53.21.9-.84,1.05-3.06-.47-4.96-2-2.48-5.59-4.01-10.33-4.01-6.96,0-11.86,4.22-11.86,10.6,0,12.92,20.67,8.44,20.67,20.19,0,4.8-3.53,8.33-8.01,8.33-4.17,0-9.44-3.32-8.96-10.65.05-1.16-.63-1.27-1.63-.74l-2.48,1.32c-.63.32-.58,1.05-.53,1.95.53,8.33,7.33,10.23,12.86,10.23,7.59,0,13.18-5.43,13.18-11.7,0-12.23-20.93-9.65-20.93-19.72Z"/>
  <path class="cls-1" d="M228.22,101.45c.74-.9.37-1.63-.74-1.63h-2.21c-.69,0-1.16.26-1.58.84l-12.92,18.66v-18.19c0-.84-.47-1.32-1.32-1.32h-1.58c-.84,0-1.32.47-1.32,1.32v38.22h4.22v-17.19l2.53-2.95,12.71,20.14h5.01l-14.92-23.51,12.13-14.39Z"/>
  <path class="cls-1" d="M248.41,98.97c-10.6,0-17.4,8.17-17.4,20.56s6.8,20.67,17.4,20.67,17.13-8.12,17.13-20.67-6.7-20.56-17.13-20.56ZM248.41,137.83c-7.7,0-12.65-7.06-12.65-18.29s4.96-18.19,12.65-18.19,12.39,7.06,12.39,18.19-4.85,18.29-12.39,18.29Z"/>
  <path class="cls-1" d="M286.95,131.18c-.47-1.05-.47-2.27,1.53-2.27.84,0,1.27-1.11,1-2.58s-1.32-2.53-2.53-2.53c-2.42,0-3.53,1.63-3.53,4.64,0,2.58,1.69,4.22,2.64,6.38.79,1.85.26,2.42-1.26,2.42l-10.81-.05v-36.06c0-.84-.47-1.32-1.32-1.32h-1.58c-.84,0-1.32.47-1.32,1.32v36.9c0,.74.58,1.32,1.32,1.32h18.93c.84,0,1.21-1.48.47-2.43-.79-1.05-2.64-3.74-3.53-5.75Z"/>
  <path class="cls-1" d="M315.99,135.3l-17.19,1.74v-14.5c0-2.27,1.27-3.74,3-3.74,1.11,0,2.37.69,4.43,2.27,1.26.95,2.79,1.53,4.22,1.53,1.11,0,2.11-.42,3-1.21.53-.47.68-1,.68-2.16v-.69c0-.95-.53-1.05-1.48-.53-1.53.84-2.95.84-4.38.11-2.85-1.37-4.38-1.9-5.69-1.9-1.53,0-2.9.69-3.8,1.9v-15.97l16.61,1.74c.84.11,1.42-.37,1.42-1.27v-1.48c0-.84-.47-1.32-1.32-1.32h-19.61c-.84,0-1.32.47-1.32,1.32v36.9c0,.84.47,1.32,1.32,1.32h20.19c.84,0,1.32-.47,1.32-1.32v-1.48c0-.9-.58-1.37-1.42-1.27Z"/>
  <path class="cls-1" d="M348.63,99.82h-1.79c-.74,0-1.27.37-1.48,1.11-1.05,4.11-1.37,7.7-1.37,11.44,0,6.17,2.06,11.81,2.06,18.35,0,7.17-2.74,7.38-4.43,7.38-1.79,0-3.69-.79-4.85-3.9-1.9-5.22.69-13.5,2.32-22.35,1.37-7.75-1.74-12.86-7.91-12.86-7.12,0-9.54,5.01-9.54,11.91,0,6.33,1.27,13.92,1.27,19.19,0,3.8-.21,6.33-1.79,9.28h5.27c.84-3.43.9-6.33.9-9.23,0-5.8-2.53-13.29-2.53-19.29s1.37-9.65,6.43-9.65c5.59,0,4.59,6.54,3.32,11.81-2.48,10.12-2.95,17.08-.74,22.62,1.53,3.85,5.32,4.59,7.85,4.59,3.43,0,8.01-2.06,8.01-11.07,0-6.17-1.42-10.86-1.42-16.45,0-4.32.37-8.07,1.53-11.39.32-.9-.16-1.48-1.11-1.48Z"/>
  <path class="cls-1" d="M370.19,98.97c-5.43,0-9.28,3.22-11.39,9.38v-7.22c0-.84-.47-1.32-1.32-1.32h-1.58c-.84,0-1.32.47-1.32,1.32v38.22h9.75c7.86,0,17.08-6.64,17.08-23.14,0-10.02-3.64-17.24-11.23-17.24ZM364.76,137.25h-5.96v-19.61c0-9.17,4.48-15.82,10.7-15.82,4.96,0,7.7,6.12,7.7,14.6,0,15.66-8.44,20.82-12.44,20.82Z"/>
  <path class="cls-1" d="M571.25,115.61c-11.88,3.92-19.05-3.44-17.82-15.28.44-6.61,1.58-13.17,2.65-19.54,1.89-9.2,1.25-21.1-9.94-23.22-10.66-1.87-20.22,6.07-25.88,14.42-5.23,7.44-7.76,15.88-12.81,23.24-10.38,15.28-24.7,2.99-38.71,3.73-12.74.24-16.3,14.15-13.01,25.78.46,4.14,9.24,16.09,1.72,16.79-10.98-.76-18.91-12.6-23.06-21.91-5.02-12.16-8.36-22.94-23.93-22.01-2.07.19-4.01.66-5.45,1.39-.51.25-1,.6-1.44.98-.32.46-.69.88-1.12,1.24-.06.07-.13.12-.19.19l-12.4,17.91v-18.19c0-.84-.47-1.32-1.32-1.32h-1.58c-.84,0-1.32.47-1.32,1.32v38.22h4.22v-17.19l2.53-2.95,12.71,20.14h5.01l-14.92-23.51,9.96-11.82c.1-.03.21-.06.31-.09.03-.02.06-.05.09-.07.07-.05.12-.1.19-.14.31-.2.62-.34.94-.44.13-.05.25-.09.38-.13,1.85-.99,3.99-1.41,6.18-1.11,2.31-.24,4.6.03,6.72,1.42,6.3,3.72,8.4,14.04,12.11,21,4.98,10.06,15.26,22.35,27.45,21.47l.16-.03c9.7-2.12,4.27-12.23,1.46-18.39-2.43-6-3.67-13.61-.11-19.36,8.31-10.98,22.27-.49,33.13-.92,7.97.18,14.58-5.33,18.29-12.03,5.81-10.1,9.63-22.62,19.7-29.76,4.97-3.7,12.96-5.88,17.76-1.13,5.01,5.68,1.9,15.12,1.03,22.14-1.05,9.35-4.61,22.19,2.22,29.7,7.04,7.85,24.34,5.37,28.52-3.57.27-2.87-8.49,2.7-10.43,3.02Z"/>
</svg>