<?xml version="1.0" encoding="UTF-8"?>
<svg id="Layer_2" xmlns="http://www.w3.org/2000/svg" viewBox="0 0 41.54 60.79">
  <defs>
    <style>
      .cls-1 {
        fill: #f15c24;
      }
    </style>
  </defs>
  <g id="Layer_6">
    <g>
      <path class="cls-1" d="M20.75,60.79c-5.48-9.11-10.95-18.23-16.43-27.34,11.01-.06,22.01-.11,33.02-.17-5.53,9.17-11.06,18.34-16.59,27.51Z"/>
      <path class="cls-1" d="M20.77,0C9.3,0,0,9.3,0,20.77s9.3,20.77,20.77,20.77,20.77-9.3,20.77-20.77S32.24,0,20.77,0ZM20.83,31.5c-5.73,0-10.38-4.65-10.38-10.38s4.65-10.38,10.38-10.38,10.38,4.65,10.38,10.38-4.65,10.38-10.38,10.38Z"/>
    </g>
  </g>
</svg>