<svg width="50" height="50" viewBox="0 0 50 50" fill="none" xmlns="http://www.w3.org/2000/svg">
<path d="M17.2603 18.3347C17.4212 18.1279 17.6434 18 17.8889 18H32.1111C32.3565 18 32.5788 18.1279 32.7396 18.3347M17.2603 18.3347C17.0995 18.5416 17 18.8273 17 19.1429V32.8571C17 33.4883 17.398 34 17.8889 34H32.1111C32.602 34 33 33.4883 33 32.8571V19.1429C33 18.8273 32.9005 18.5416 32.7396 18.3347M17.2603 18.3347L23.7429 26.6694C24.4372 27.5621 25.5628 27.5621 26.2571 26.6694L32.7396 18.3347" stroke="#FF5E04" stroke-linecap="round" stroke-linejoin="round"/>
<rect x="0.5" y="0.5" width="49" height="49" rx="9.5" stroke="#FF5E04"/>
</svg>
