<?xml version="1.0" encoding="UTF-8"?>
<svg id="Layer_2" xmlns="http://www.w3.org/2000/svg" viewBox="0 0 118.5 109.49">
  <defs>
    <style>
      .cls-1, .cls-2 {
        fill: none;
      }

      .cls-2 {
        stroke: #f15c24;
        stroke-miterlimit: 10;
        stroke-width: 4px;
      }

      .cls-3 {
        fill: #f15c24;
      }
    </style>
  </defs>
  <g id="Layer_4">
    <g>
      <rect class="cls-1" x="37.85" y="17.46" width="78.65" height="75.95"/>
      <ellipse class="cls-2" cx="77.48" cy="17.46" rx="39.03" ry="15.46"/>
      <path class="cls-2" d="M116.5,87.71c0,8.54-41.8,17.87-57.61,8.89"/>
      <line class="cls-2" x1="38.45" y1="17.46" x2="38.45" y2="41.84"/>
      <line class="cls-2" x1="116.5" y1="17.46" x2="116.5" y2="87.71"/>
      <path class="cls-2" d="M116.5,35.35c0,8.54-17.47,15.46-39.03,15.46s-39.03-6.92-39.03-15.46"/>
      <path class="cls-2" d="M116.5,53.19c0,8.54-23.5,18.01-50.8,12.06"/>
      <path class="cls-2" d="M116.5,69.82c0,8.54-28.8,17.89-49.34,11.58"/>
      <circle class="cls-2" cx="34.58" cy="74.91" r="32.58"/>
      <path class="cls-3" d="M41.76,82.98c-.54.97-1.33,1.78-2.38,2.44-1.05.66-2.28,1.06-3.71,1.19v2.67h-2.15v-2.67c-2.07-.2-3.74-.85-5.02-1.95-1.28-1.1-1.92-2.55-1.92-4.36h4.03c.07.86.34,1.57.83,2.13.48.56,1.18.92,2.08,1.07v-7.26c-1.47-.37-2.67-.75-3.6-1.14-.92-.38-1.71-1-2.36-1.83s-.97-1.98-.97-3.43c0-1.83.64-3.34,1.92-4.54,1.28-1.2,2.95-1.9,5.02-2.1v-2.67h2.15v2.67c1.94.18,3.49.79,4.67,1.83,1.18,1.05,1.84,2.48,2,4.31h-4.03c-.07-.68-.33-1.29-.79-1.83-.46-.54-1.08-.91-1.85-1.11v7.13c1.47.35,2.67.72,3.6,1.11.92.39,1.71.99,2.34,1.82s.96,1.96.96,3.42c0,1.1-.27,2.13-.81,3.1ZM31.23,71.76c.54.51,1.3.91,2.29,1.22v-6.67c-.95.11-1.7.45-2.26,1.02-.56.57-.84,1.34-.84,2.31,0,.9.27,1.61.81,2.11ZM37.95,82.34c.55-.63.83-1.38.83-2.26s-.27-1.57-.81-2.06-1.3-.9-2.29-1.2v6.7c.97-.15,1.73-.54,2.28-1.17Z"/>
    </g>
  </g>
</svg>