<?xml version="1.0" encoding="UTF-8"?>
<svg id="Layer_2" xmlns="http://www.w3.org/2000/svg" viewBox="0 0 140.15 107.16">
  <defs>
    <style>
      .cls-1 {
        fill: #f15c24;
      }
    </style>
  </defs>
  <g id="Layer_7">
    <g>
      <g>
        <polygon class="cls-1" points="104.63 0 124.58 41.47 84.67 41.47 104.63 0"/>
        <polygon class="cls-1" points="104.51 23.44 133.54 64.91 75.48 64.91 104.51 23.44"/>
        <polygon class="cls-1" points="105.11 41.47 140.15 89.17 70.07 89.17 105.11 41.47"/>
        <rect class="cls-1" x="96.98" y="85.62" width="16.35" height="15.25"/>
      </g>
      <g>
        <polygon class="cls-1" points="28.4 37.52 41.23 64.18 15.57 64.18 28.4 37.52"/>
        <polygon class="cls-1" points="28.32 52.59 46.99 79.25 9.66 79.25 28.32 52.59"/>
        <polygon class="cls-1" points="28.71 64.18 51.24 94.85 6.18 94.85 28.71 64.18"/>
        <rect class="cls-1" x="23.48" y="92.57" width="10.51" height="9.81"/>
      </g>
      <path class="cls-1" d="M25.47,100.87c-.01-.12,74.91-7.23,94.11-1.35,21.02,6.43,16.67,7.3,16.67,7.3l-44.96.35L0,104.73l25.47-3.86Z"/>
      <g>
        <polyline class="cls-1" points="76.11 52.98 47.86 52.98 61.99 19.55"/>
        <line class="cls-1" x1="61.99" y1="19.55" x2="76.11" y2="52.98"/>
        <polyline class="cls-1" points="82.45 71.88 41.36 71.88 61.9 38.44 82.45 71.88"/>
        <polyline class="cls-1" points="37.53 91.44 62.33 52.98 87.13 91.44"/>
        <line class="cls-1" x1="87.13" y1="91.44" x2="37.53" y2="91.44"/>
        <polyline class="cls-1" points="56.57 100.87 56.57 88.57 68.14 88.57 68.14 100.87"/>
      </g>
    </g>
  </g>
</svg>