<svg width="50" height="50" viewBox="0 0 50 50" fill="none" xmlns="http://www.w3.org/2000/svg">
<path fill-rule="evenodd" clip-rule="evenodd" d="M18.4545 21C18.4545 19.5942 19.5942 18.4545 21 18.4545C21.6993 18.4545 22.3316 18.7356 22.7924 19.1926L23.089 19.4867L23.4925 19.3788C23.9724 19.2505 24.4777 19.1818 25 19.1818C28.2133 19.1818 30.8182 21.7867 30.8182 25C30.8182 25.5223 30.7495 26.0276 30.6212 26.5076L30.5132 26.9111L30.8073 27.2076C31.2644 27.6684 31.5455 28.3007 31.5455 29C31.5455 30.4058 30.4058 31.5455 29 31.5455C28.3007 31.5455 27.6684 31.2644 27.2076 30.8073L26.9111 30.5132L26.5076 30.6212C26.0276 30.7495 25.5223 30.8182 25 30.8182C21.7867 30.8182 19.1818 28.2133 19.1818 25C19.1818 24.4777 19.2505 23.9724 19.3788 23.4925L19.4867 23.089L19.1926 22.7924C18.7356 22.3316 18.4545 21.6993 18.4545 21ZM21 17C18.7909 17 17 18.7909 17 21C17 21.9479 17.3304 22.8196 17.8813 23.5049C17.7803 23.9879 17.7273 24.4881 17.7273 25C17.7273 29.0166 20.9834 32.2727 25 32.2727C25.5119 32.2727 26.0121 32.2197 26.4951 32.1188C27.1804 32.6696 28.0521 33 29 33C31.2092 33 33 31.2092 33 29C33 28.0521 32.6696 27.1804 32.1188 26.4951C32.2197 26.0121 32.2727 25.5119 32.2727 25C32.2727 20.9834 29.0166 17.7273 25 17.7273C24.4881 17.7273 23.9879 17.7803 23.5049 17.8813C22.8196 17.3304 21.9479 17 21 17ZM24.0124 23.0583C24.1088 22.8744 24.4389 22.6364 24.9509 22.6364C25.8283 22.6364 26.3123 22.9797 26.5348 23.1496C26.8541 23.3933 27.3105 23.3319 27.5542 23.0126C27.7979 22.6933 27.7366 22.2369 27.4172 21.9933C27.0612 21.7216 26.2708 21.1818 24.9509 21.1818C24.028 21.1818 23.1273 21.6138 22.6903 22.4474C22.3746 23.0499 22.4257 23.7073 22.7465 24.2409C23.058 24.759 23.5986 25.1292 24.2356 25.3008L25.3655 25.6052C25.8007 25.7223 26.4617 26.1268 26.2237 26.6716C26.0802 27.0002 25.5716 27.3636 24.8224 27.3636C24.1748 27.3636 23.6034 27.2517 23.0776 26.8504C22.7583 26.6068 22.3019 26.6681 22.0582 26.9873C21.8146 27.3067 21.8759 27.7631 22.1952 28.0067C22.8997 28.5444 23.6331 28.8182 24.6616 28.8182C25.81 28.8182 27.0632 28.3836 27.5567 27.2539C27.8471 26.5889 27.7513 25.8919 27.3884 25.3322C26.83 24.4709 25.8681 24.222 24.9368 23.981C24.8286 23.953 24.7207 23.9251 24.6139 23.8963C24.2313 23.7932 23.7841 23.4939 24.0124 23.0583Z" fill="#FF5E04"/>
<rect x="0.5" y="0.5" width="49" height="49" rx="9.5" stroke="#FF5E04"/>
</svg>
