<?xml version="1.0" encoding="UTF-8"?>
<svg id="Layer_2" xmlns="http://www.w3.org/2000/svg" viewBox="0 0 54.41 127.16">
  <defs>
    <style>
      .cls-1 {
        fill: #f15c24;
      }
    </style>
  </defs>
  <g id="Layer_9">
    <g>
      <path class="cls-1" d="M41.4,56.91c-9.61.06-19.23.12-28.84.18,1.91-3.05,4.17-7.38,5.74-12.91,2.03-7.12,2.08-13.31,1.79-17.41h13.41c-.29,4.06-.23,10.36,1.97,17.59,1.65,5.4,3.98,9.61,5.92,12.54Z"/>
      <rect class="cls-1" x="12.55" y="57" width="28.84" height="14.56"/>
      <path class="cls-1" d="M25.69,122.47c-.99,2.84-3.7,4.73-6.68,4.68-2.9-.05-5.49-1.92-6.45-4.68v-51.6h13.14v51.6Z"/>
      <path class="cls-1" d="M41.4,122.47c-.99,2.84-3.7,4.73-6.68,4.68-2.9-.05-5.49-1.92-6.45-4.68v-51.6h13.14v51.6Z"/>
      <path class="cls-1" d="M8.88,76.14c-.67,1.35-2.48,2.25-4.49,2.22-1.95-.02-3.68-.91-4.33-2.22-.26-8.73.38-16.01,1.1-21.32,2.33-17.24,6.54-21.85,8.54-23.7,2.26-2.08,4.58-3.3,6.2-4-1.33,4.32-2.66,8.63-4,12.95-1.01,12.02-2.02,24.05-3.03,36.07Z"/>
      <path class="cls-1" d="M45.53,76.14c.67,1.35,2.48,2.25,4.49,2.22,1.95-.02,3.68-.91,4.33-2.22.26-8.73-.38-16.01-1.1-21.32-2.33-17.24-6.54-21.85-8.54-23.7-2.26-2.08-4.58-3.3-6.2-4,1.33,4.32,2.66,8.63,4,12.95,1.01,12.02,2.02,24.05,3.03,36.07Z"/>
      <polygon class="cls-1" points="38.51 27.12 36.57 27.12 40.85 49.17 42.5 40.07 38.51 27.12"/>
      <polygon class="cls-1" points="15.7 27.12 17.63 27.12 13.36 49.17 11.7 40.07 15.7 27.12"/>
      <path class="cls-1" d="M23.12,25.67c-1.48-.47-5.33-1.47-9.92-.14-5.34,1.55-8.23,5.24-9.1,6.43v-13.78h10.57c2.82,2.5,5.63,4.99,8.45,7.49Z"/>
      <path class="cls-1" d="M30.72,25.67c1.48-.47,5.33-1.47,9.92-.14,5.34,1.55,8.23,5.24,9.1,6.43,0-4.59,0-9.19,0-13.78h-10.57c-2.82,2.5-5.63,4.99-8.45,7.49Z"/>
      <ellipse class="cls-1" cx="26.97" cy="11.54" rx="11.93" ry="11.54"/>
    </g>
  </g>
</svg>