<svg width="50" height="50" viewBox="0 0 50 50" fill="none" xmlns="http://www.w3.org/2000/svg">
<path d="M30.4853 32.08L30.4849 32.0801C30.4557 32.0873 28.7649 32.5 25.0048 32.5H24.9947C21.2843 32.5 19.5862 32.0981 19.5126 32.0804C19.2795 32.022 18.9933 31.8463 18.7218 31.5608C18.4541 31.2792 18.2328 30.9239 18.1114 30.5605C18.1019 30.5322 17.5 28.7096 17.5 25C17.5 21.2904 18.1019 19.4671 18.1114 19.4388C18.2327 19.0755 18.454 18.7204 18.7217 18.4391C18.9937 18.1533 19.2804 17.9778 19.5137 17.92L19.5148 17.9197C19.5428 17.9127 21.2347 17.5 24.9947 17.5C28.7173 17.5 30.4139 17.9023 30.486 17.9196C30.7194 17.978 31.0056 18.1537 31.277 18.4389C31.5444 18.72 31.7654 19.0747 31.8869 19.4374C31.9017 19.4822 32.5 21.3061 32.5 25C32.5 28.7098 31.8965 30.5319 31.8871 30.5597L31.8867 30.5611C31.7655 30.9241 31.5444 31.2794 31.2769 31.5608C31.005 31.8467 30.7185 32.0223 30.4853 32.08ZM32.361 30.7193C32.0685 31.596 31.3139 32.39 30.6054 32.5653L32.361 30.7193ZM31.9213 19.6633L31.9207 19.6617L18.5525 30.18C18.7081 30.6473 19.1966 31.1607 19.5761 31.2547L19.4548 31.7397C19.4551 31.7398 19.4555 31.7399 19.4559 31.74C19.5333 31.7591 21.2906 32.1667 24.9947 32.1667H25.0048C28.7295 32.1667 30.4828 31.7546 30.5407 31.7406L30.5433 31.74C30.8656 31.66 31.1623 31.4313 31.3807 31.2015C31.6071 30.9634 31.8145 30.6562 31.9213 30.3353L31.9213 30.3353C31.9578 30.2243 32.499 28.4542 32.499 25C32.499 21.501 31.9437 19.7313 31.9213 19.6633ZM17.5005 25C17.5005 28.4335 18.0343 30.204 18.0781 30.3379L30.5437 18.2603C30.5434 18.2602 30.5431 18.2601 30.5428 18.26C30.4674 18.2415 28.7117 17.8333 25.0048 17.8333C21.2706 17.8333 19.5158 18.2453 19.4578 18.2594L19.4578 18.2594L19.4552 18.26C19.1329 18.34 18.8362 18.5687 18.6178 18.7985C18.3914 19.0366 18.184 19.3438 18.0772 19.6647L18.0772 19.6647C18.0233 19.8303 17.5005 21.6016 17.5005 25ZM27.4585 25.1509L23.5232 28.4519C23.5117 28.4198 23.5037 28.3792 23.5037 28.3333V21.6667C23.5037 21.6201 23.5119 21.5791 23.5235 21.5468L27.4584 24.7892L27.4585 24.7893C27.4597 24.7903 27.4741 24.8035 27.4887 24.8382C27.503 24.8721 27.5132 24.9171 27.5133 24.9684C27.5136 25.0853 27.4666 25.1442 27.4592 25.1503L27.4585 25.1509ZM24.3222 22.4768L23.5042 21.8028V22.8627V27.126V28.198L24.3255 27.5091L26.8896 25.3584L27.3504 24.9719L26.8862 24.5894L24.3222 22.4768Z" stroke="#FF5E04"/>
<rect x="0.5" y="0.5" width="49" height="49" rx="9.5" stroke="#FF5E04"/>
</svg>
